<?xml version="1.0" encoding="UTF-8" standalone="no"?>
<!-- Created with Inkscape (http://www.inkscape.org/) -->

<svg
   width="44.029636mm"
   height="38.105202mm"
   viewBox="0 0 44.029636 38.105202"
   version="1.1"
   id="svg1"
   xml:space="preserve"
   xmlns="http://www.w3.org/2000/svg"
   xmlns:svg="http://www.w3.org/2000/svg"><defs
     id="defs1" /><g
     id="layer1"
     transform="translate(-83.494424,-258.07223)"><g
       id="g73"
       transform="matrix(0.27382091,-0.20188456,0.1859983,0.29720817,46.074353,236.59177)"><g
         id="g79"
         transform="matrix(0.59292811,0.40275821,-0.33554562,0.49397983,64.879909,153.28098)"><g
           id="g14"><path
             d="m -0.45096986,121.78698 v 2.65841 c -10e-9,1.45241 -0.85266024,1.87511 -2.13700084,1.86453 L -15.75553,126.20147 c -1.28434,-0.0104 -2.428198,-0.30194 -2.428198,-1.75608 v -2.65841 z"
             id="path2-5"
             style="stroke-width:1.64163" /><path
             d="m 98.662898,103.95896 -13.833374,-0.0104 H -25.572347 l -11.512615,0.33003 c -0.810694,-0.15791 0.671883,1.56156 1.213898,2.31639 l 10.30027,12.77313 H 84.829524 l 14.068817,-13.95256 c 0.710506,-0.79492 1.646799,-1.53947 0.583513,-1.44997 z"
             id="path4-8"
             style="stroke-width:1.64163" /><path
             d="m 68.086565,74.401484 v 0 c -0.842899,-0.875657 -0.705232,-2.198066 0.311964,-2.985153 L 123.03444,29.079914 c 1.06263,-0.823741 2.6708,-0.746632 3.55279,0.168885 l 2.83134,2.940453 c 0.88198,0.915516 0.68552,2.307453 -0.4317,3.073398 L 71.517748,74.658835 c -1.069522,0.732317 -2.588284,0.618303 -3.431183,-0.257351 z"
             id="path14"
             style="stroke-width:1.76286" /><path
             d="M 50.246013,68.336549"
             id="path1-3"
             style="stroke-width:1.64163" /><path
             d="m 76.026604,121.91244 v 2.65841 c 0,1.45241 -0.85266,1.8751 -2.137001,1.86453 l -13.167559,-0.10845 c -1.28434,-0.0104 -2.428198,-0.30194 -2.428198,-1.75608 v -2.65841 z"
             id="path2-5-0"
             style="stroke-width:1.64163" /><g
             id="g25-05-1"
             transform="matrix(4.7794966,0,0,3.8646382,-5557.5322,-292.77157)"
             style="clip-rule:evenodd;fill-rule:evenodd;stroke-linejoin:round;stroke-miterlimit:2"><g
               id="g6-3-1"
               transform="matrix(0.1115431,0,0,0.12219095,1158.5157,64.552524)"><g
                 id="g11-6-0"
                 transform="translate(-1.5164224,219.04021)"><path
                   d="m 22.625,48.301 c 1.2812,-0.19531 2.543,-0.39062 3.8086,-0.53516 3.1094,-0.50391 6.2227,-0.73047 9.3477,-0.77734 0.06641,-0.51953 0.14453,-1.0195 0.21094,-1.5391 -1.1016,-1.3789 -2.2188,-2.7383 -3.3516,-3.9844 -4.6641,-5.2812 -10.254,-9.5273 -15.957,-13.625 -3.4023,2.3008 -6.543,4.9414 -8.9922,8.2461 -0.015625,0.03125 -0.046875,0.08203 -0.066406,0.11328 3.4336,2.2031 6.8359,4.457 9.9961,7.0312 1.8438,1.5195 3.4648,3.2539 5.0039,5.0703 z"
                   id="path1-5-52-4"
                   style="fill:#ce6969;fill-opacity:1" /><path
                   d="m 36.688,41.43 c 0.55078,-2.8672 1.2305,-5.7031 2.0234,-8.5039 0.51953,-1.5859 1.0352,-3.2891 1.6211,-5.0078 -2.8984,-2.6562 -6.0117,-5.0859 -9.2812,-7.2578 -0.03125,-0.01563 -0.06641,-0.03125 -0.08203,-0.06641 -2.25,0.69531 -4.4531,1.5391 -6.5625,2.5938 -1.668,0.92188 -3.3359,1.8789 -4.9727,2.8828 6.2383,4.5703 12.297,9.3828 17.254,15.359 z"
                   id="path2-4-9-3"
                   style="fill:#ce6969;fill-opacity:1" /><path
                   d="m 74.223,48.914 c 2.8359,0.74609 5.6367,1.5703 8.4062,2.4453 1.6836,0.39062 3.3047,1.0859 4.9258,1.7188 0.06641,0.03125 0.14453,0.04687 0.21094,0.08203 -2.5938,-7 -5.3281,-14.031 -8.8789,-20.43 -1.4102,-2.4609 -2.7695,-5.0078 -4.1797,-7.5 -2.3477,-1.1172 -4.7773,-2.0898 -7.2266,-2.9805 -0.74609,2.5117 -1.2461,5.1523 -1.5234,7.7109 -0.11328,1.1172 -0.22656,2.2344 -0.32422,3.3516 1.4727,2.2344 2.8672,4.5039 4.2617,6.7539 1.6562,2.8359 3.0977,5.8008 4.3281,8.8477 z"
                   id="path3-3-0-7"
                   style="fill:#ce6969;fill-opacity:1" /><path
                   d="m 70.336,47.977 c -1.4922,-3.3516 -3.207,-6.5938 -5.1016,-9.7031 -0.21094,2.8672 -0.37109,5.7344 -0.48438,8.6016 1.875,0.30469 3.7227,0.67969 5.5859,1.1016 z"
                   id="path4-0-6-6"
                   style="fill:#ce6969;fill-opacity:1" /><path
                   d="m 41.449,24.891 c 0.89062,-2.2852 1.9453,-4.4883 3.2383,-6.4297 -3.3359,0.08203 -6.6602,0.45312 -9.9141,1.1484 1.5391,1.0859 3.0312,2.2188 4.4883,3.418 0.73047,0.59766 1.457,1.2305 2.1875,1.8633 z"
                   id="path5-6-0-85"
                   style="fill:#ce6969;fill-opacity:1" /><path
                   d="M 64.973,19.219 C 64.89097,19.17213 64.81284,19.13697 64.71519,19.09009 64.5355,18.99243 64.3441,18.89478 64.13316,18.79712 64.0355,18.76587 63.93785,18.71509 63.82457,18.66821 63.62926,18.58618 63.43395,18.48852 63.22691,18.4104 63.12925,18.37915 63.01597,18.32837 62.91832,18.29712 62.70738,18.21509 62.49644,18.13696 62.28551,18.05493 62.18785,18.02368 62.0902,17.98852 61.97692,17.95727 61.76598,17.89086 61.55505,17.81274 61.34411,17.76196 61.23083,17.73071 61.13317,17.69555 61.03552,17.6643 c -0.22656,-0.04687 -0.4375,-0.11328 -0.66406,-0.16406 -0.09766,-0.03125 -0.21094,-0.04687 -0.30859,-0.08203 -0.22656,-0.04687 -0.4375,-0.09766 -0.66406,-0.14453 -0.11328,-0.01563 -0.21094,-0.03125 -0.32422,-0.04688 -0.21094,-0.03125 -0.4375,-0.08203 -0.66406,-0.11328 -0.09766,-0.01563 -0.21094,-0.01563 -0.32422,-0.03125 -0.22656,-0.03125 -0.4375,-0.04687 -0.66406,-0.08203 -0.11328,0 -0.21094,0 -0.32422,-0.01563 -0.22656,-0.01563 -0.4375,-0.03125 -0.66406,-0.03125 -0.11328,-0.01563 -0.22656,0 -0.33984,-0.01563 h -0.64844 c -0.11328,0 -0.22656,0.01563 -0.35547,0.01563 -0.21094,0.01563 -0.42188,0.01563 -0.63281,0.03125 -0.11328,0.01563 -0.22656,0.01563 -0.33984,0.03125 -0.22656,0.01563 -0.4375,0.03125 -0.64844,0.06641 -0.11328,0.01563 -0.22656,0.04687 -0.33984,0.06641 -0.21094,0.03125 -0.42188,0.04687 -0.63281,0.09766 -0.11328,0.01563 -0.22656,0.04687 -0.33984,0.08203 -0.21094,0.03125 -0.42188,0.08203 -0.63281,0.12891 -0.09766,0.03125 -0.21094,0.06641 -0.32422,0.09766 -0.21094,0.06641 -0.42188,0.11328 -0.63281,0.17969 -0.08203,0.03125 -0.17969,0.06641 -0.27344,0.09766 -0.21094,0.08203 -0.4375,0.16016 -0.64844,0.24219 -0.08203,0.01563 -0.14453,0.04687 -0.21094,0.08203 h -0.01563 c -0.03125,0.01563 -0.04687,0.03125 -0.08203,0.03125 -0.03125,0.01563 -0.06641,0.03125 -0.09766,0.04687 -0.09766,0.03125 -0.17969,0.08203 -0.25781,0.12891 -0.01563,0.01563 -0.03125,0.03125 -0.03125,0.04687 -0.04687,0.03125 -0.09766,0.08203 -0.14453,0.11328 -0.06641,0.08203 -0.14453,0.16016 -0.21094,0.25781 0,0.01563 0,0.01563 -0.01563,0.03125 -1.1484,1.2812 -2.0234,2.8203 -2.8203,4.3398 -0.80859,1.7344 -1.5547,3.5 -2.2344,5.2969 -0.09766,0.27734 -0.21094,0.53516 -0.30859,0.80859 -1.9609,5.3125 -3.3711,10.855 -4.2109,16.492 -0.04687,0.39062 -0.11328,0.76172 -0.16016,1.1484 -0.12891,0.85937 -0.22656,1.7188 -0.32422,2.5938 0,0.12891 -0.01563,0.25781 -0.03125,0.40625 -0.71094,7.0977 -0.55078,14.289 0.50391,21.27 0.4375,3.3711 1.0547,5.9609 2.2188,7.8555 0.16016,0.25781 0.32422,0.48437 0.50391,0.71094 0.01563,0.01563 0.01563,0.03125 0.03125,0.03125 0.16016,0.21094 0.33984,0.42188 0.53516,0.61719 0.01563,0.01563 0.03125,0.03125 0.06641,0.06641 0.17969,0.17969 0.39062,0.35547 0.59766,0.53516 0.01563,0.01563 0.03125,0.03125 0.06641,0.04687 0.21094,0.16016 0.45312,0.32422 0.69531,0.46875 1.7344,1.0547 4.1133,1.5547 7.4375,1.5547 2.543,-0.04688 5.0703,-0.46875 7.5156,-1.1836 0.39062,-0.09766 0.76172,-0.22656 1.1484,-0.33984 0.12891,-0.04687 0.27734,-0.09766 0.40625,-0.14453 0.50391,-0.16016 1.0039,-0.33984 1.5078,-0.53516 v -0.01562 c 0.09766,-0.06641 0.17969,-0.14453 0.25781,-0.22656 1.8945,-2.1562 -0.27734,-10.465 -0.17969,-13.332 -0.17969,-4.1328 -0.29297,-8.2617 -0.29297,-12.41 0,-1.7656 0.03125,-3.5156 0.06641,-5.2812 v -0.35547 c 0.01563,-0.69531 0.04687,-1.4102 0.06641,-2.1211 0.01563,-0.22656 0.01563,-0.45312 0.01563,-0.67969 0.14453,-4.1641 0.40625,-8.3438 0.79297,-12.492 v -0.08203 c 0.14453,-1.4922 0.30859,-2.9805 0.46875,-4.4727 0.19531,-1.5859 0.39062,-3.1602 0.61719,-4.7305 0.29297,-1.1484 0.51953,-2.3164 0.82422,-3.4844 h -0.01563 c 0.01563,-0.01563 0.01563,-0.04687 0.03125,-0.06641 0.04687,-0.19531 0.09766,-0.39062 0.16016,-0.58203 0.03125,-0.12891 0.06641,-0.25781 0.11328,-0.39062 0.09766,-0.29297 0.19531,-0.61719 0.32422,-0.91016 z"
                   id="path6-5-1-07" /><path
                   d="m 90.586,35.906 c -3.2891,-3.1914 -7.0156,-5.8789 -11,-8.1484 2.6719,4.7148 5.1523,9.5273 7.2891,14.516 1.6836,3.9375 3.207,7.9531 4.6992,11.973 0.01563,0 0.01563,0.01563 0.03125,0.01563 0.27734,0.03125 0.55078,0.06641 0.82812,0.08203 1.8477,-0.42188 2.2344,-2.8828 2.6875,-4.4531 0.80859,-5.0273 -0.98828,-10.355 -4.5352,-13.984 z"
                   id="path7-7-37"
                   style="fill:#ce6969;fill-opacity:1" /><path
                   d="m 84.07,72.082 c 1.1328,0.27734 2.3633,0.98828 3.5312,0.55078 0.4375,-0.14453 0.59766,-0.59766 0.98828,-0.79297 -0.01563,-0.32422 0,-0.64844 0.04687,-0.94141 0.30859,-1.6523 1.5234,-3.2227 1.1016,-4.957 -0.66406,-1.1484 -1.9766,-1.7969 -2.4961,-3.0469 -0.09766,0.01563 -0.17969,0.01563 -0.25781,0.01563 -0.56641,0 -1.1484,-0.11328 -1.6523,-0.32422 -1.0859,-0.30859 -1.9609,-1.0195 -2.9336,-1.5703 -1.1484,0.51953 -2.2852,1.5078 -3.6289,1.2305 -2.4453,0.08203 -5.0078,-4.6836 -1.7969,-5.2656 0.80859,0 1.3438,0.71094 1.4727,1.4414 0.55078,0.71094 1.3789,0.21094 2.2344,-0.29297 0.69531,-0.40625 1.4258,-0.80859 2.0742,-0.59766 1.3594,0.27344 2.2695,1.4922 3.6445,1.7656 0.32422,0.08203 0.67969,0.14453 1.0195,0.06641 h 0.24219 c 0.37109,-0.74609 0.79297,-1.4922 0.97266,-2.2852 -0.51953,-0.17969 -1.0352,-0.39062 -1.5859,-0.66406 -3.9023,-1.4102 -7.8906,-2.7695 -11.906,-3.9219 -0.33984,-0.09766 -0.66406,-0.19531 -1.0039,-0.27734 -0.29297,-0.08203 -0.56641,-0.16016 -0.84375,-0.24219 -0.30859,-0.08203 -0.61719,-0.16406 -0.92188,-0.24219 -2.5586,-0.66406 -5.1367,-1.2305 -7.7422,-1.6836 -0.03125,1.4414 -0.06641,2.8828 -0.08203,4.3242 0.55078,0.33984 0.73047,1.1484 1.4258,1.4102 0.82422,0.46875 1.7188,0 2.5742,-0.45312 1.0703,-0.58203 2.0898,-1.168 2.8984,0.11328 0.74609,1.3945 -0.29297,2.625 -1.6055,3.0938 -0.95703,0.46875 -1.9922,0.90625 -3.0625,0.90625 -0.30859,0 -0.61719,-0.03125 -0.92188,-0.11328 -0.4375,-0.09766 -0.89062,-0.27344 -1.3125,-0.50391 0,0.92188 0,1.8477 0.01563,2.7695 0.09766,3.6289 0.35547,7.2422 0.77734,10.84 0.25781,2.7695 0.80859,5.6367 0.21094,8.375 1.168,-0.22656 2.3164,-0.61719 3.1758,-0.92188 2.1875,-0.73047 3.5156,-0.01563 4.7305,0.69531 1.75,1.0195 3.2734,2.043 6.7383,-1.0703 1.1016,-1.1484 2.4805,-1.0195 3.8711,-0.89062 0.84375,0.08203 1.6992,0.16016 2.5117,-0.06641 1.6367,-0.55078 2.1562,-1.5703 2.25,-2.7695 -0.63281,0.29297 -1.3281,0.46875 -1.9609,0.46875 -0.17969,0 -0.33984,-0.01563 -0.50391,-0.03125 -1.4727,-0.04687 -2.8203,-1.0703 -4.293,-0.76172 -0.4375,0.14453 -0.84375,0.40625 -1.3125,0.45312 -0.89062,0.12891 -1.5703,-0.61719 -1.6836,-1.457 -0.23047,-2.3906 3.2695,-2.8477 5,-2.375 z m -12.262,0.33984 c -0.30859,0 -0.59766,-0.03125 -0.85938,-0.11328 -1.7656,-0.06641 -3.4492,-1.5391 -3.5312,-3.3516 -0.03125,-1.9922 2.5273,-2.4453 2.9492,-0.39062 0.79297,0.48438 2.1055,0.48438 2.8828,-0.08203 0.53516,-0.42188 0.85938,-1.1836 1.6055,-1.3125 0.4375,-0.06641 0.875,0.09766 1.1992,0.42188 1.8281,2.3008 -1.75,4.8281 -4.2461,4.8281 z"
                   id="path8-7-93"
                   style="fill:#e1dbd8;fill-opacity:1" /><path
                   d="m 89.742,65.91 v 0.03125 c 0.03125,0.03125 0.04687,0.08203 0.06641,0.11328 C 89.78888,66.00375 89.77325,65.95687 89.742,65.91 Z"
                   id="path9-18-5" /><path
                   d="m 35.422,77.184 h -0.40625 c -1.7344,-0.14453 -4.9102,-0.4375 -4.3398,-2.8984 0.21094,-0.77734 1.0195,-1.5078 1.8633,-1.168 1.1484,0.37109 2.625,0.89062 3.8086,0.46875 -0.04687,-0.30859 -0.09766,-0.59766 -0.12891,-0.90625 -1.3281,-7.4688 -1.5234,-15.066 -0.79297,-22.566 -1.9609,0.04687 -3.9023,0.14453 -5.8984,0.37109 -1.6367,0.12891 -3.2734,0.35547 -4.9102,0.61719 -1.1016,0.16016 -2.1875,0.33984 -3.2891,0.51953 -3.5156,0.56641 -7.0312,1.0547 -10.562,0.89062 -1.9453,4.8438 4.957,5.8008 2.6094,11.273 -0.40625,1.2305 -1.1836,2.3477 -1.2969,3.6602 0.01563,0.46875 0.21094,0.89063 0.71094,1.0547 7.3398,1.9922 2.8359,5.8633 5.7031,9.0391 1.1992,0.59766 2.5117,0.37109 3.8242,0.14453 1.1172,-0.17969 2.2344,-0.37109 3.3203,-0.06641 2.0234,0.40625 3.5625,1.8789 5.3789,2.7852 2.3828,1.0195 5.1367,0.82422 7.7109,0.21094 -0.69531,-1.1016 -1.2305,-2.3164 -1.6367,-3.6445 -0.53516,0.15234 -1.1016,0.21484 -1.668,0.21484 z m -8.1797,-6.6562 c -1.0352,0.98828 -2.5742,1.668 -4.0508,1.668 -0.48438,0 -0.97266,-0.06641 -1.4414,-0.22656 -1.1836,-0.4375 -2.2188,-1.6523 -2.0898,-2.9648 0.17969,-1.6992 2.3164,-2.0898 2.8672,-0.39062 0.89062,0.35547 2.0586,-0.17969 2.7695,-0.73047 1.6836,-1.5039 3.3359,1.3477 1.9453,2.6445 z M 29.09,60.563 c -1.2305,0.875 -2.7227,0.67969 -4.0508,0.16016 -1.1992,0.42188 -2.1211,1.3789 -3.418,1.3789 -0.08203,0 -0.16016,0 -0.25781,-0.01562 -1.8789,0.01562 -2.9336,-1.832 -3.207,-3.6602 -0.33984,-2.3164 0.61059,-3.855266 2.5742,-3.2891 0.55078,0.58203 0.64844,1.5078 0.30859,2.2031 -0.06641,0.37109 0,0.76172 0.14453,1.1016 0.32422,0.45312 1.0703,-0.01563 1.832,-0.48438 0.56641,-0.33984 1.1484,-0.69531 1.5703,-0.66406 0.92187,-0.22656 1.878631,0.400995 2.753631,0.467405 1.3789,-0.33984 2.121369,-2.912705 3.644769,-1.147105 1.1641,1.6172 -0.61719,3.125 -1.8945,3.9492 z"
                   id="path10-84-4"
                   style="fill:#e1dbd8;fill-opacity:1" /><path
                   d="m 10.961,49.336 c 0.22656,0.01562 0.45312,0.03125 0.67969,0.04687 2.4609,0.08203 4.9258,-0.17969 7.3867,-0.53516 -0.95703,-1.0547 -1.9609,-2.0898 -3.0312,-3.0469 -3.0625,-2.6094 -6.4141,-4.8438 -9.8164,-6.9805 -2.0234,4.2773 -2.8672,9.4453 3.3047,10.383 0.19531,0.03125 0.37109,0.04687 0.56641,0.06641 0.19531,0.01563 0.40625,0.03125 0.59766,0.04687 0.10156,0.01953 0.21484,0.01953 0.3125,0.01953 z"
                   id="path11-2-6"
                   style="fill:#ce6969;fill-opacity:1" /></g></g></g><g
             id="g25-05-1-3"
             transform="matrix(4.7794966,0,0,3.8646382,-5504.5639,-292.15508)"
             style="clip-rule:evenodd;fill-rule:evenodd;stroke-linejoin:round;stroke-miterlimit:2"><g
               id="g6-3-1-2"
               transform="matrix(0.1115431,0,0,0.12219095,1158.5157,64.552524)"><g
                 id="g11-6-0-3"
                 transform="translate(-1.5164224,219.04021)"><path
                   d="m 22.625,48.301 c 1.2812,-0.19531 2.543,-0.39062 3.8086,-0.53516 3.1094,-0.50391 6.2227,-0.73047 9.3477,-0.77734 0.06641,-0.51953 0.14453,-1.0195 0.21094,-1.5391 -1.1016,-1.3789 -2.2188,-2.7383 -3.3516,-3.9844 -4.6641,-5.2812 -10.254,-9.5273 -15.957,-13.625 -3.4023,2.3008 -6.543,4.9414 -8.9922,8.2461 -0.015625,0.03125 -0.046875,0.08203 -0.066406,0.11328 3.4336,2.2031 6.8359,4.457 9.9961,7.0312 1.8438,1.5195 3.4648,3.2539 5.0039,5.0703 z"
                   id="path1-5-52-4-0"
                   style="fill:#ce6969;fill-opacity:1" /><path
                   d="m 36.688,41.43 c 0.55078,-2.8672 1.2305,-5.7031 2.0234,-8.5039 0.51953,-1.5859 1.0352,-3.2891 1.6211,-5.0078 -2.8984,-2.6562 -6.0117,-5.0859 -9.2812,-7.2578 -0.03125,-0.01563 -0.06641,-0.03125 -0.08203,-0.06641 -2.25,0.69531 -4.4531,1.5391 -6.5625,2.5938 -1.668,0.92188 -3.3359,1.8789 -4.9727,2.8828 6.2383,4.5703 12.297,9.3828 17.254,15.359 z"
                   id="path2-4-9-3-3"
                   style="fill:#ce6969;fill-opacity:1" /><path
                   d="m 74.223,48.914 c 2.8359,0.74609 5.6367,1.5703 8.4062,2.4453 1.6836,0.39062 3.3047,1.0859 4.9258,1.7188 0.06641,0.03125 0.14453,0.04687 0.21094,0.08203 -2.5938,-7 -5.3281,-14.031 -8.8789,-20.43 -1.4102,-2.4609 -2.7695,-5.0078 -4.1797,-7.5 -2.3477,-1.1172 -4.7773,-2.0898 -7.2266,-2.9805 -0.74609,2.5117 -1.2461,5.1523 -1.5234,7.7109 -0.11328,1.1172 -0.22656,2.2344 -0.32422,3.3516 1.4727,2.2344 2.8672,4.5039 4.2617,6.7539 1.6562,2.8359 3.0977,5.8008 4.3281,8.8477 z"
                   id="path3-3-0-7-4"
                   style="fill:#ce6969;fill-opacity:1" /><path
                   d="m 70.336,47.977 c -1.4922,-3.3516 -3.207,-6.5938 -5.1016,-9.7031 -0.21094,2.8672 -0.37109,5.7344 -0.48438,8.6016 1.875,0.30469 3.7227,0.67969 5.5859,1.1016 z"
                   id="path4-0-6-6-9"
                   style="fill:#ce6969;fill-opacity:1" /><path
                   d="m 41.449,24.891 c 0.89062,-2.2852 1.9453,-4.4883 3.2383,-6.4297 -3.3359,0.08203 -6.6602,0.45312 -9.9141,1.1484 1.5391,1.0859 3.0312,2.2188 4.4883,3.418 0.73047,0.59766 1.457,1.2305 2.1875,1.8633 z"
                   id="path5-6-0-85-7"
                   style="fill:#ce6969;fill-opacity:1" /><path
                   d="M 64.973,19.219 C 64.89097,19.17213 64.81284,19.13697 64.71519,19.09009 64.5355,18.99243 64.3441,18.89478 64.13316,18.79712 64.0355,18.76587 63.93785,18.71509 63.82457,18.66821 63.62926,18.58618 63.43395,18.48852 63.22691,18.4104 63.12925,18.37915 63.01597,18.32837 62.91832,18.29712 62.70738,18.21509 62.49644,18.13696 62.28551,18.05493 62.18785,18.02368 62.0902,17.98852 61.97692,17.95727 61.76598,17.89086 61.55505,17.81274 61.34411,17.76196 61.23083,17.73071 61.13317,17.69555 61.03552,17.6643 c -0.22656,-0.04687 -0.4375,-0.11328 -0.66406,-0.16406 -0.09766,-0.03125 -0.21094,-0.04687 -0.30859,-0.08203 -0.22656,-0.04687 -0.4375,-0.09766 -0.66406,-0.14453 -0.11328,-0.01563 -0.21094,-0.03125 -0.32422,-0.04688 -0.21094,-0.03125 -0.4375,-0.08203 -0.66406,-0.11328 -0.09766,-0.01563 -0.21094,-0.01563 -0.32422,-0.03125 -0.22656,-0.03125 -0.4375,-0.04687 -0.66406,-0.08203 -0.11328,0 -0.21094,0 -0.32422,-0.01563 -0.22656,-0.01563 -0.4375,-0.03125 -0.66406,-0.03125 -0.11328,-0.01563 -0.22656,0 -0.33984,-0.01563 h -0.64844 c -0.11328,0 -0.22656,0.01563 -0.35547,0.01563 -0.21094,0.01563 -0.42188,0.01563 -0.63281,0.03125 -0.11328,0.01563 -0.22656,0.01563 -0.33984,0.03125 -0.22656,0.01563 -0.4375,0.03125 -0.64844,0.06641 -0.11328,0.01563 -0.22656,0.04687 -0.33984,0.06641 -0.21094,0.03125 -0.42188,0.04687 -0.63281,0.09766 -0.11328,0.01563 -0.22656,0.04687 -0.33984,0.08203 -0.21094,0.03125 -0.42188,0.08203 -0.63281,0.12891 -0.09766,0.03125 -0.21094,0.06641 -0.32422,0.09766 -0.21094,0.06641 -0.42188,0.11328 -0.63281,0.17969 -0.08203,0.03125 -0.17969,0.06641 -0.27344,0.09766 -0.21094,0.08203 -0.4375,0.16016 -0.64844,0.24219 -0.08203,0.01563 -0.14453,0.04687 -0.21094,0.08203 h -0.01563 c -0.03125,0.01563 -0.04687,0.03125 -0.08203,0.03125 -0.03125,0.01563 -0.06641,0.03125 -0.09766,0.04687 -0.09766,0.03125 -0.17969,0.08203 -0.25781,0.12891 -0.01563,0.01563 -0.03125,0.03125 -0.03125,0.04687 -0.04687,0.03125 -0.09766,0.08203 -0.14453,0.11328 -0.06641,0.08203 -0.14453,0.16016 -0.21094,0.25781 0,0.01563 0,0.01563 -0.01563,0.03125 -1.1484,1.2812 -2.0234,2.8203 -2.8203,4.3398 -0.80859,1.7344 -1.5547,3.5 -2.2344,5.2969 -0.09766,0.27734 -0.21094,0.53516 -0.30859,0.80859 -1.9609,5.3125 -3.3711,10.855 -4.2109,16.492 -0.04687,0.39062 -0.11328,0.76172 -0.16016,1.1484 -0.12891,0.85937 -0.22656,1.7188 -0.32422,2.5938 0,0.12891 -0.01563,0.25781 -0.03125,0.40625 -0.71094,7.0977 -0.55078,14.289 0.50391,21.27 0.4375,3.3711 1.0547,5.9609 2.2188,7.8555 0.16016,0.25781 0.32422,0.48437 0.50391,0.71094 0.01563,0.01563 0.01563,0.03125 0.03125,0.03125 0.16016,0.21094 0.33984,0.42188 0.53516,0.61719 0.01563,0.01563 0.03125,0.03125 0.06641,0.06641 0.17969,0.17969 0.39062,0.35547 0.59766,0.53516 0.01563,0.01563 0.03125,0.03125 0.06641,0.04687 0.21094,0.16016 0.45312,0.32422 0.69531,0.46875 1.7344,1.0547 4.1133,1.5547 7.4375,1.5547 2.543,-0.04688 5.0703,-0.46875 7.5156,-1.1836 0.39062,-0.09766 0.76172,-0.22656 1.1484,-0.33984 0.12891,-0.04687 0.27734,-0.09766 0.40625,-0.14453 0.50391,-0.16016 1.0039,-0.33984 1.5078,-0.53516 v -0.01562 c 0.09766,-0.06641 0.17969,-0.14453 0.25781,-0.22656 1.8945,-2.1562 -0.27734,-10.465 -0.17969,-13.332 -0.17969,-4.1328 -0.29297,-8.2617 -0.29297,-12.41 0,-1.7656 0.03125,-3.5156 0.06641,-5.2812 v -0.35547 c 0.01563,-0.69531 0.04687,-1.4102 0.06641,-2.1211 0.01563,-0.22656 0.01563,-0.45312 0.01563,-0.67969 0.14453,-4.1641 0.40625,-8.3438 0.79297,-12.492 v -0.08203 c 0.14453,-1.4922 0.30859,-2.9805 0.46875,-4.4727 0.19531,-1.5859 0.39062,-3.1602 0.61719,-4.7305 0.29297,-1.1484 0.51953,-2.3164 0.82422,-3.4844 h -0.01563 c 0.01563,-0.01563 0.01563,-0.04687 0.03125,-0.06641 0.04687,-0.19531 0.09766,-0.39062 0.16016,-0.58203 0.03125,-0.12891 0.06641,-0.25781 0.11328,-0.39062 0.09766,-0.29297 0.19531,-0.61719 0.32422,-0.91016 z"
                   id="path6-5-1-07-9" /><path
                   d="m 90.586,35.906 c -3.2891,-3.1914 -7.0156,-5.8789 -11,-8.1484 2.6719,4.7148 5.1523,9.5273 7.2891,14.516 1.6836,3.9375 3.207,7.9531 4.6992,11.973 0.01563,0 0.01563,0.01563 0.03125,0.01563 0.27734,0.03125 0.55078,0.06641 0.82812,0.08203 1.8477,-0.42188 2.2344,-2.8828 2.6875,-4.4531 0.80859,-5.0273 -0.98828,-10.355 -4.5352,-13.984 z"
                   id="path7-7-37-4"
                   style="fill:#ce6969;fill-opacity:1" /><path
                   d="m 84.07,72.082 c 1.1328,0.27734 2.3633,0.98828 3.5312,0.55078 0.4375,-0.14453 0.59766,-0.59766 0.98828,-0.79297 -0.01563,-0.32422 0,-0.64844 0.04687,-0.94141 0.30859,-1.6523 1.5234,-3.2227 1.1016,-4.957 -0.66406,-1.1484 -1.9766,-1.7969 -2.4961,-3.0469 -0.09766,0.01563 -0.17969,0.01563 -0.25781,0.01563 -0.56641,0 -1.1484,-0.11328 -1.6523,-0.32422 -1.0859,-0.30859 -1.9609,-1.0195 -2.9336,-1.5703 -1.1484,0.51953 -2.2852,1.5078 -3.6289,1.2305 -2.4453,0.08203 -5.0078,-4.6836 -1.7969,-5.2656 0.80859,0 1.3438,0.71094 1.4727,1.4414 0.55078,0.71094 1.3789,0.21094 2.2344,-0.29297 0.69531,-0.40625 1.4258,-0.80859 2.0742,-0.59766 1.3594,0.27344 2.2695,1.4922 3.6445,1.7656 0.32422,0.08203 0.67969,0.14453 1.0195,0.06641 h 0.24219 c 0.37109,-0.74609 0.79297,-1.4922 0.97266,-2.2852 -0.51953,-0.17969 -1.0352,-0.39062 -1.5859,-0.66406 -3.9023,-1.4102 -7.8906,-2.7695 -11.906,-3.9219 -0.33984,-0.09766 -0.66406,-0.19531 -1.0039,-0.27734 -0.29297,-0.08203 -0.56641,-0.16016 -0.84375,-0.24219 -0.30859,-0.08203 -0.61719,-0.16406 -0.92188,-0.24219 -2.5586,-0.66406 -5.1367,-1.2305 -7.7422,-1.6836 -0.03125,1.4414 -0.06641,2.8828 -0.08203,4.3242 0.55078,0.33984 0.73047,1.1484 1.4258,1.4102 0.82422,0.46875 1.7188,0 2.5742,-0.45312 1.0703,-0.58203 2.0898,-1.168 2.8984,0.11328 0.74609,1.3945 -0.29297,2.625 -1.6055,3.0938 -0.95703,0.46875 -1.9922,0.90625 -3.0625,0.90625 -0.30859,0 -0.61719,-0.03125 -0.92188,-0.11328 -0.4375,-0.09766 -0.89062,-0.27344 -1.3125,-0.50391 0,0.92188 0,1.8477 0.01563,2.7695 0.09766,3.6289 0.35547,7.2422 0.77734,10.84 0.25781,2.7695 0.80859,5.6367 0.21094,8.375 1.168,-0.22656 2.3164,-0.61719 3.1758,-0.92188 2.1875,-0.73047 3.5156,-0.01563 4.7305,0.69531 1.75,1.0195 3.2734,2.043 6.7383,-1.0703 1.1016,-1.1484 2.4805,-1.0195 3.8711,-0.89062 0.84375,0.08203 1.6992,0.16016 2.5117,-0.06641 1.6367,-0.55078 2.1562,-1.5703 2.25,-2.7695 -0.63281,0.29297 -1.3281,0.46875 -1.9609,0.46875 -0.17969,0 -0.33984,-0.01563 -0.50391,-0.03125 -1.4727,-0.04687 -2.8203,-1.0703 -4.293,-0.76172 -0.4375,0.14453 -0.84375,0.40625 -1.3125,0.45312 -0.89062,0.12891 -1.5703,-0.61719 -1.6836,-1.457 -0.23047,-2.3906 3.2695,-2.8477 5,-2.375 z m -12.262,0.33984 c -0.30859,0 -0.59766,-0.03125 -0.85938,-0.11328 -1.7656,-0.06641 -3.4492,-1.5391 -3.5312,-3.3516 -0.03125,-1.9922 2.5273,-2.4453 2.9492,-0.39062 0.79297,0.48438 2.1055,0.48438 2.8828,-0.08203 0.53516,-0.42188 0.85938,-1.1836 1.6055,-1.3125 0.4375,-0.06641 0.875,0.09766 1.1992,0.42188 1.8281,2.3008 -1.75,4.8281 -4.2461,4.8281 z"
                   id="path8-7-93-7"
                   style="fill:#e1dbd8;fill-opacity:1" /><path
                   d="m 89.742,65.91 v 0.03125 c 0.03125,0.03125 0.04687,0.08203 0.06641,0.11328 C 89.78888,66.00375 89.77325,65.95687 89.742,65.91 Z"
                   id="path9-18-5-4" /><path
                   d="m 35.422,77.184 h -0.40625 c -1.7344,-0.14453 -4.9102,-0.4375 -4.3398,-2.8984 0.21094,-0.77734 1.0195,-1.5078 1.8633,-1.168 1.1484,0.37109 2.625,0.89062 3.8086,0.46875 -0.04687,-0.30859 -0.09766,-0.59766 -0.12891,-0.90625 -1.3281,-7.4688 -1.5234,-15.066 -0.79297,-22.566 -1.9609,0.04687 -3.9023,0.14453 -5.8984,0.37109 -1.6367,0.12891 -3.2734,0.35547 -4.9102,0.61719 -1.1016,0.16016 -2.1875,0.33984 -3.2891,0.51953 -3.5156,0.56641 -7.0312,1.0547 -10.562,0.89062 -1.9453,4.8438 4.957,5.8008 2.6094,11.273 -0.40625,1.2305 -1.1836,2.3477 -1.2969,3.6602 0.01563,0.46875 0.21094,0.89063 0.71094,1.0547 7.3398,1.9922 2.8359,5.8633 5.7031,9.0391 1.1992,0.59766 2.5117,0.37109 3.8242,0.14453 1.1172,-0.17969 2.2344,-0.37109 3.3203,-0.06641 2.0234,0.40625 3.5625,1.8789 5.3789,2.7852 2.3828,1.0195 5.1367,0.82422 7.7109,0.21094 -0.69531,-1.1016 -1.2305,-2.3164 -1.6367,-3.6445 -0.53516,0.15234 -1.1016,0.21484 -1.668,0.21484 z m -8.1797,-6.6562 c -1.0352,0.98828 -2.5742,1.668 -4.0508,1.668 -0.48438,0 -0.97266,-0.06641 -1.4414,-0.22656 -1.1836,-0.4375 -2.2188,-1.6523 -2.0898,-2.9648 0.17969,-1.6992 2.3164,-2.0898 2.8672,-0.39062 0.89062,0.35547 2.0586,-0.17969 2.7695,-0.73047 1.6836,-1.5039 3.3359,1.3477 1.9453,2.6445 z M 29.09,60.563 c -1.2305,0.875 -2.7227,0.67969 -4.0508,0.16016 -1.1992,0.42188 -2.1211,1.3789 -3.418,1.3789 -0.08203,0 -0.16016,0 -0.25781,-0.01562 -1.8789,0.01562 -2.9336,-1.832 -3.207,-3.6602 -0.33984,-2.3164 0.61059,-3.855266 2.5742,-3.2891 0.55078,0.58203 0.64844,1.5078 0.30859,2.2031 -0.06641,0.37109 0,0.76172 0.14453,1.1016 0.32422,0.45312 1.0703,-0.01563 1.832,-0.48438 0.56641,-0.33984 1.1484,-0.69531 1.5703,-0.66406 0.92187,-0.22656 1.878631,0.400995 2.753631,0.467405 1.3789,-0.33984 2.121369,-2.912705 3.644769,-1.147105 1.1641,1.6172 -0.61719,3.125 -1.8945,3.9492 z"
                   id="path10-84-4-8"
                   style="fill:#e1dbd8;fill-opacity:1" /><path
                   d="m 10.961,49.336 c 0.22656,0.01562 0.45312,0.03125 0.67969,0.04687 2.4609,0.08203 4.9258,-0.17969 7.3867,-0.53516 -0.95703,-1.0547 -1.9609,-2.0898 -3.0312,-3.0469 -3.0625,-2.6094 -6.4141,-4.8438 -9.8164,-6.9805 -2.0234,4.2773 -2.8672,9.4453 3.3047,10.383 0.19531,0.03125 0.37109,0.04687 0.56641,0.06641 0.19531,0.01563 0.40625,0.03125 0.59766,0.04687 0.10156,0.01953 0.21484,0.01953 0.3125,0.01953 z"
                   id="path11-2-6-6"
                   style="fill:#ce6969;fill-opacity:1" /></g></g></g></g></g></g><path
       d="m 109.482,288.55321 v 0 c -0.0495,-0.24052 0.15778,-0.46252 0.46854,-0.50113 l 16.7108,-2.08935 c 0.32491,-0.0405 0.63673,0.13371 0.6887,0.3851 l 0.16665,0.80727 c 0.052,0.25138 -0.17667,0.47989 -0.50494,0.50504 l -16.87788,1.28204 c -0.31328,0.0236 -0.60238,-0.14844 -0.65187,-0.38897 z"
       id="path13"
       style="stroke-width:0.391589" /><text
       xml:space="preserve"
       style="font-size:9.736px;font-family:'Segoe Print';-inkscape-font-specification:'Segoe Print, Normal';fill:#ce6969;fill-opacity:1;stroke-width:0.264583"
       x="233.28462"
       y="165.97885"
       id="text2"
       transform="matrix(0.78781521,0.41473847,-0.52322316,0.99388692,0,0)"><tspan
         id="tspan2"
         style="fill:#ce6969;fill-opacity:1;stroke-width:0.264583"
         x="233.28462"
         y="165.97885">-15%</tspan></text><g
       id="g85"
       transform="matrix(0.08663345,0,0,0.08438297,91.864315,261.20663)"
       style="stroke-width:3.09451"><path
         style="fill:#1a1a1a;fill-opacity:1;stroke:none;stroke-width:3.09451"
         d="m 377.24147,976.11672 2.87262,-0.88389"
         id="path86" /><path
         style="fill:#1a1a1a;fill-opacity:1;stroke:none;stroke-width:3.09451"
         d="m 377.37405,976.29349 4.06586,-1.94454"
         id="path89" /><g
         id="g92"
         transform="matrix(1.9135212,0,0,1.9010572,-74.274319,62.299164)"
         style="stroke-width:1.62248"><path
           d="m -4389.1,99.711 c -0.9133,-5.093333 -0.1041,-10.345791 2.3,-14.928 l -3.273,-1.714 3,-2.653 c -1.1666,-1.625129 -1.9527,-3.491879 -2.3,-5.462 -0.6599,0.455236 -1.3506,0.864215 -2.067,1.224 l 2.455,3.592 h -5.116 c -1.83,4.873 -1.9765,7.547388 -1.1255,9.665388 0.94,2.335 2.7955,4.893612 0.4515,10.574612 -0.1953,0.4731 -0.6562,0.78209 -1.168,0.783 -0.9009,-0.003 -0.1854,-1.448758 0.1588,-2.28133 1.954,-4.726 -0.1258,-6.05967 -0.9908,-8.22167 -0.9,-2.234 -1.741,-5.291 0.01,-10.521 h -5.529 l 2.427,-3.539 c -0.7091,-0.345418 -1.3931,-0.740049 -2.047,-1.181 -0.355,1.934429 -1.1332,3.766467 -2.279,5.365 l 3,2.653 -3.271,1.714 c 2.4054,4.581754 2.5099,8.773217 1.5999,13.86734 -0.091,0.62107 0.085,2.14282 -0.5429,2.14466 -0.7732,-1.6e-4 -0.2166,-2.013065 -0.103,-2.777825 0.752,-5.2 -1.056,-8.135175 -3.193,-12.061175 l -3.617,1.893 -0.328,-4.184 c -4.506,0.024 -10.4,-3.02 -13.7,-9.9 -1.0575,-2.131166 -1.6218,-4.473045 -1.651,-6.852 -0.091,-4.417188 2.3541,-8.496738 6.292,-10.5 1.6101,-0.870678 3.4086,-1.334478 5.239,-1.351 1.2188,0.0022 2.4274,0.222012 3.569,0.649 0.558,-9.316 6.651,-15.712 15.227,-15.712 8.622,0 14.739,6.474 15.233,15.88 2.9005,-1.141903 6.1569,-0.946517 8.9,0.534 3.9369,2.00392 6.3803,6.083416 6.289,10.5 0,8.143 -7.429,16.715 -15.355,16.754 l -0.326,4.184 -3.617,-1.893 c -2.141,3.924 -4.3026,6.864175 -3.5456,12.061175 0.1129,0.76494 1.0228,2.777565 0.2496,2.777825 -0.6303,0.003 -1.1661,-0.45995 -1.255,-1.084 z m 8.62,-41.382 c -0.2087,5.6918 -2.6548,11.071369 -6.807,14.97 0.542,4.846 1.0486,6.53 1.7906,7.282 l -1.6453,2 4.5523,2.527883 1.1268,-2.923223 c 6.368,0.953 9.9456,-4.09966 12.5036,-9.42166 2.374,-4.945 2.166,-11.3 -3.644,-14.34 -1.2484,-0.669746 -2.6413,-1.025005 -4.058,-1.035 -1.3289,0.0085 -2.6371,0.330519 -3.818,0.94 z m -28.1916,26.96066 4.2911,-2.351107 -1.2887,-2.265165 c 2.835,-2.272 1.5612,-6.188388 1.6882,-7.228388 -4.2391,-3.92962 -6.7223,-9.397182 -6.892,-15.175 -2.4651,-1.220689 -5.3715,-1.158319 -7.782,0.167 -5.811,3.045 -6.018,9.395 -3.642,14.34 2.506,5.221 7.2321,11.194602 12.8551,9.863602 z m 0.2446,-28.49766 c 0,1.284 -1.1352,15.173718 10.8458,18.739718 l -1.1003,2.590165 5.9222,-0.265165 -0.7497,-3.133495 c 11.74,-3.356 10.59,-16.756223 10.59,-18.010223 0,-7.255 -3.941,-14.337 -12.75,-14.337 -8.809,0 -12.757,7.164 -12.757,14.416 z"
           transform="translate(4426,-40)"
           id="path1"
           style="stroke-width:1.62248" /><path
           d="m 16.550971,42.746663 c -0.0088,0.0063 -0.02072,0.01353 -0.03573,0.01923 -0.01034,0.0039 -0.01775,0.0051 -0.01621,0.0049 0.0031,-4.87e-4 0.02007,-0.0019 0.05822,-0.0051 0.02564,-0.0021 0.07183,-0.0063 0.122565,-0.01762 0.01802,-0.004 0.03752,-0.0091 0.05777,-0.01556 0.02219,-0.0071 0.0473,-0.01636 0.07402,-0.02875 0.0045,-0.0021 0.06595,-0.03291 0.03567,-0.01796 0.01513,-0.0076 0.03184,-0.01481 0.05521,-0.02299 0.02584,-0.009 0.05567,-0.01778 0.09176,-0.02682 0.04268,-0.01066 0.08854,-0.0203 0.141228,-0.03033 0.0742,-0.01411 0.15617,-0.02756 0.245841,-0.04405 0.049,-0.009 0.10411,-0.0197 0.160775,-0.03288 0.04073,-0.0095 0.08662,-0.02128 0.134547,-0.03662 0.02423,-0.0077 0.05116,-0.01756 0.06228,-0.02151 0.05941,-0.0212 0.114393,-0.04049 0.168381,-0.05745 0.02827,-0.0089 0.054,-0.01637 0.07821,-0.0225 0.01136,-0.0029 0.02296,-0.0055 0.03531,-0.0079 0.08988,-0.0185 0.172985,-0.0415 0.252353,-0.06705 0.09256,-0.02984 0.181798,-0.06374 0.267743,-0.09947 0.102465,-0.04264 0.201797,-0.08854 0.298145,-0.135641 0.119174,-0.05829 0.2354,-0.119224 0.348678,-0.180335 0.203619,-0.109881 0.40035,-0.22181 0.594193,-0.32794 0.103735,-0.05677 0.205258,-0.11118 0.306822,-0.162626 0.08108,-0.04104 0.160351,-0.07928 0.239218,-0.114135 0.06551,-0.02893 0.128861,-0.0547 0.191203,-0.07688 0.0151,-0.0053 0.02775,-0.0097 0.03946,-0.01353 0.0017,-5.47e-4 0.0084,-0.0022 0.01877,-0.0036 0.01156,-0.0015 0.02679,-0.0025 0.0492,-0.003 0.0188,-3.67e-4 0.04385,-1.72e-4 0.07475,-6.97e-4 0.02356,-4.32e-4 0.0566,-0.0014 0.09334,-0.0056 0.03231,-0.0038 0.07499,-0.01086 0.122063,-0.02672 0.04429,-0.01491 0.09209,-0.03753 0.138516,-0.07196 0.04386,-0.03236 0.07948,-0.07057 0.10702,-0.109512 0.03671,-0.05173 0.0576,-0.102714 0.06981,-0.140115 0.01581,-0.04856 0.02273,-0.09169 0.02628,-0.120805 0.0051,-0.04211 0.0059,-0.07861 0.0059,-0.102816 a 0.3748684,0.3748684 90 0 0 -0.749736,-3.38e-4 c -4e-6,0.0074 -4.48e-4,0.01288 -4.43e-4,0.01284 3.3e-5,-2.77e-4 3.06e-4,-0.0063 0.0052,-0.02126 0.0036,-0.01116 0.01226,-0.03417 0.03124,-0.06092 0.01434,-0.02028 0.03374,-0.04128 0.05886,-0.05981 0.02527,-0.01874 0.04928,-0.0295 0.06807,-0.03582 0.0187,-0.0063 0.02967,-0.0074 0.03053,-0.0075 0.0013,-1.49e-4 -0.0052,4.58e-4 -0.01988,7.28e-4 -0.01796,3.04e-4 -0.0432,7.9e-5 -0.0758,7.16e-4 -0.03643,6.78e-4 -0.08179,0.0026 -0.130888,0.009 -0.04751,0.0061 -0.09928,0.01647 -0.152665,0.03351 -0.02303,0.0075 -0.04292,0.01443 -0.06022,0.02056 -0.08443,0.03003 -0.165383,0.06317 -0.243546,0.09769 -0.09422,0.04164 -0.185749,0.08591 -0.274935,0.131054 -0.111694,0.05658 -0.22098,0.115211 -0.32811,0.173839 -0.201034,0.110067 -0.396484,0.221233 -0.590217,0.325779 -0.108233,0.05839 -0.215006,0.114288 -0.322009,0.166627 -0.08651,0.04229 -0.17172,0.08155 -0.256731,0.116924 -0.07137,0.02967 -0.140992,0.05594 -0.20975,0.07811 -0.05902,0.019 -0.115522,0.03438 -0.170235,0.04565 -0.02135,0.0042 -0.04646,0.0098 -0.07175,0.01618 -0.04215,0.01066 -0.08228,0.02257 -0.118321,0.03386 -0.06908,0.02169 -0.135746,0.0452 -0.195429,0.0665 -0.01988,0.0071 -0.0326,0.01163 -0.03827,0.01342 -0.02343,0.0075 -0.04842,0.01412 -0.07729,0.02086 -0.03973,0.0092 -0.08168,0.01747 -0.126365,0.02571 -0.07969,0.01465 -0.163754,0.02843 -0.250221,0.04487 -0.06034,0.01149 -0.121279,0.02411 -0.182955,0.03951 -0.05218,0.01306 -0.104662,0.02803 -0.15739,0.04645 -0.04757,0.01665 -0.09519,0.03603 -0.142397,0.05981 -0.02474,0.01221 -0.02705,0.01353 -0.01423,0.0077 0.0038,-0.0018 0.0086,-0.0035 0.01186,-0.0045 0.003,-9.6e-4 0.0053,-0.0015 0.0068,-0.0019 0.0032,-7.13e-4 -0.0051,9.17e-4 -0.02202,0.0023 -0.01913,0.0016 -0.06618,0.0044 -0.111518,0.01149 -0.0441,0.0069 -0.08943,0.01786 -0.134903,0.03521 -0.0581,0.02205 -0.103088,0.04971 -0.134027,0.07186 a 0.3748684,0.3748684 90 0 0 0.436434,0.609616 z"
           id="path-1"
           style="fill:#000000;fill-opacity:1;fill-rule:nonzero;stroke:none;stroke-width:1.62248"
           transform="rotate(-6.0343315,22.208253,41.363628)" /><path
           d="m 16.539772,42.727579 c 0,0 0.0038,-2.33e-4 0.02163,-0.01988 0.01786,-0.01964 -0.04371,0.03587 -0.02163,0.01988 1.32e-4,-9.6e-5 0.02965,-0.0205 0.05762,-0.04811 0.04969,-0.04905 0.09941,-0.09996 0.130747,-0.162356 0.03134,-0.0624 0.04248,-0.135878 0.02448,-0.203343 -0.018,-0.06746 -0.06436,-0.125681 -0.122956,-0.163652 -0.0586,-0.03797 -0.127481,-0.05613 -0.195352,-0.07253 -0.03687,-0.0089 -0.0679,-0.01024 -0.08724,-0.01015 -0.01953,9.2e-5 -0.02993,0.0013 -0.03098,0.0014 -0.0046,3.9e-4 -0.0092,8.7e-4 -0.01372,0.0014 -0.04369,0.0054 -0.08251,0.01799 -0.08353,0.01829 -0.02797,0.0085 -0.05053,0.01653 -0.06684,0.02232 -0.01835,0.0065 -0.03347,0.01207 -0.04526,0.01616 -0.01006,0.0033 -0.0051,1.81e-4 0.02184,-0.0056 0.08928,-0.01911 0.181737,-0.03637 0.271183,-0.01805 0.04472,0.0092 0.08787,0.02694 0.124904,0.05363 0.03703,0.02669 0.06771,0.06227 0.08807,0.103127 0.02036,0.04086 0.0303,0.08677 0.02934,0.132407 -9.56e-4,0.04564 -0.01269,0.0908 -0.03221,0.132067 -0.03906,0.08253 -0.108225,0.146218 -0.176957,0.20632 -0.01768,0.01546 -0.03292,0.02539 -0.03926,0.0294 -0.007,0.0044 -0.0073,0.0045 -6.8e-4,4.92e-4 -0.0057,0.0034 0.006,-0.0026 0.02835,-0.01533 0.0083,-0.0048 0.03923,-0.02181 0.06977,-0.04386 0.0083,-0.0061 0.03065,-0.02246 0.0541,-0.04684 0.05421,-0.05635 0.108419,-0.115229 0.139064,-0.187169 0.03064,-0.07194 0.03508,-0.156112 0.0048,-0.228201 -0.03029,-0.07209 -0.09354,-0.127833 -0.166416,-0.156184 -0.07287,-0.02835 -0.15289,-0.0306 -0.231084,-0.03106 -0.03062,-1.8e-4 -0.05541,0.0034 -0.0702,0.0059 -0.01538,0.0027 -0.02304,0.0046 -0.02314,0.0047 -0.03954,0.0095 -0.06866,0.01935 -0.08403,0.02453 -0.02258,0.0077 -0.04434,0.01561 -0.06653,0.0243 -0.0047,0.0019 -0.01886,0.0067 -0.04401,0.01905 -0.09645,0.04718 -0.194927,0.09907 -0.260694,0.183937 -0.03288,0.04243 -0.05687,0.09209 -0.06707,0.144799 -0.01019,0.05271 -0.0063,0.108171 0.01186,0.158673 0.01821,0.0505 0.05064,0.09566 0.09212,0.129735 0.04149,0.03407 0.09166,0.05698 0.144061,0.06863 0.104809,0.0233 0.213725,2.57e-4 0.318046,-0.02514 0.03105,-0.0076 0.04608,-0.01358 0.04597,-0.01354 0.02417,-0.0081 0.04407,-0.01517 0.06142,-0.02136 -0.0034,0.0012 0.0066,-0.0018 0.0255,-0.0072 0.03523,-0.0099 0.0729,-0.02009 0.112888,-0.03084 0.09301,-0.02494 0.186481,-0.04953 0.281231,-0.07443 0.537191,-0.141016 0.298587,-0.07812 0.835852,-0.219156 0.107303,-0.02836 0.215612,-0.05712 0.324006,-0.08655 0.05106,-0.0139 0.103613,-0.02829 0.156474,-0.0434 0.02375,-0.0068 0.05278,-0.01517 0.08242,-0.02468 0.01504,-0.0048 0.03355,-0.01122 0.05374,-0.01958 0.0937,-0.03692 0.190659,-0.07855 0.285327,-0.121074 0.125637,-0.05648 0.249069,-0.115409 0.370529,-0.175359 0.158732,-0.07839 0.315375,-0.159209 0.470244,-0.241066 0.220319,-0.116495 0.438274,-0.235803 0.654289,-0.355742 0.177417,-0.09851 0.354426,-0.198054 0.52992,-0.296538 0.116863,-0.06555 0.232194,-0.130199 0.347846,-0.193768 0.165076,-0.09073 0.329377,-0.179122 0.494468,-0.263905 0.117339,-0.06014 0.232405,-0.117317 0.347742,-0.169947 0.06536,-0.02968 0.125972,-0.05589 0.185318,-0.07798 0.03204,-0.01179 0.05398,-0.01889 0.07196,-0.02323 0.008,-0.0018 0.0031,7.62e-4 -0.01814,0.0013 -0.0076,1.4e-4 -0.04659,0.0014 -0.09546,-0.0146 -0.02108,-0.0071 -0.04704,-0.01772 -0.07537,-0.0361 -0.03649,-0.02368 -0.07249,-0.04982 -0.09733,-0.08553 -0.02483,-0.03571 -0.03684,-0.07854 -0.04642,-0.120976 -0.0079,-0.0352 -0.0088,-0.06576 -0.0077,-0.08838 0.0042,-0.07125 0.02395,-0.105609 0.02821,-0.114369 0.01414,-0.02812 0.02075,-0.03339 0.0146,-0.02595 -0.0075,0.0089 -0.02118,0.0228 -0.0443,0.04398 -0.02937,0.02675 -0.06238,0.05398 -0.0984,0.08191 -0.04353,0.03369 -0.08834,0.06584 -0.133937,0.09623 -0.04011,0.02668 -0.07867,0.0506 -0.116452,0.0717 -0.03349,0.01858 -0.0577,0.03041 -0.0779,0.03822 -0.01174,0.0044 -0.0044,5.33e-4 0.01209,-0.0019 0.01191,-0.0016 0.0444,-0.0074 0.09812,0.0051 0.01908,0.0046 0.03978,0.01106 0.06245,0.02176 0.02323,0.01096 0.04646,0.02214 0.06785,0.03636 0.02139,0.01422 0.04085,0.03148 0.05663,0.05175 0.01578,0.02026 0.02774,0.04337 0.03622,0.06762 0.0085,0.02424 0.01348,0.04954 0.01827,0.07477 0.0045,0.02361 0.0053,0.0431 0.0053,0.05578 a 0.35283783,0.35283783 90 0 0 -0.705676,1.64e-4 c 5e-6,0.01882 0.0013,0.04505 0.007,0.07552 0.0057,0.03017 0.01169,0.0604 0.02173,0.08942 0.01004,0.02901 0.0242,0.05671 0.04293,0.08103 0.01873,0.02433 0.04189,0.04509 0.06741,0.06217 0.02552,0.01707 0.05329,0.03045 0.08105,0.04356 0.02782,0.01313 0.05401,0.02146 0.07647,0.02685 0.07466,0.01739 0.135597,0.01052 0.161561,0.007 0.06443,-0.0093 0.114533,-0.0273 0.142979,-0.03809 0.06631,-0.02566 0.12277,-0.05514 0.168666,-0.0806 0.05815,-0.03247 0.112581,-0.06647 0.164368,-0.100923 0.0594,-0.03959 0.117743,-0.08144 0.17499,-0.125739 0.04635,-0.03594 0.09453,-0.07535 0.142246,-0.118824 0.0318,-0.02915 0.07162,-0.06709 0.110177,-0.112917 0.01632,-0.01971 0.04891,-0.05943 0.07584,-0.112845 0.01055,-0.02159 0.03938,-0.08073 0.04408,-0.160663 0.0015,-0.03042 3.76e-4,-0.06556 -0.0086,-0.105209 -0.01068,-0.0473 -0.02412,-0.09505 -0.05188,-0.134809 -0.02776,-0.03976 -0.06792,-0.06885 -0.108605,-0.09525 -0.03254,-0.02112 -0.06314,-0.03383 -0.08643,-0.04166 -0.06681,-0.0219 -0.122165,-0.02147 -0.141777,-0.02117 -0.05997,0.0016 -0.106971,0.01222 -0.129884,0.01757 -0.06092,0.01469 -0.113347,0.03309 -0.153919,0.04801 -0.08323,0.03097 -0.161059,0.06495 -0.232805,0.09754 -0.129711,0.05919 -0.25539,0.12176 -0.377484,0.184337 -0.173196,0.08894 -0.343703,0.180709 -0.512259,0.273356 -0.118705,0.06525 -0.23658,0.131326 -0.353221,0.196752 -0.176399,0.09899 -0.351553,0.197498 -0.527186,0.295012 -0.213706,0.118658 -0.427095,0.235445 -0.641546,0.348837 -0.150779,0.07969 -0.301465,0.157414 -0.452838,0.232171 -0.11594,0.05723 -0.23148,0.112341 -0.347381,0.164448 -0.08749,0.0393 -0.174088,0.07641 -0.260587,0.110545 -0.0028,0.0011 -0.0021,9.61e-4 -0.0048,0.0018 -0.01795,0.0058 -0.03678,0.01122 -0.06138,0.0183 -0.04772,0.01364 -0.09667,0.02706 -0.147089,0.04078 -0.105817,0.02874 -0.21223,0.05699 -0.319156,0.08525 -0.187756,0.04959 -0.647001,0.169279 -0.834829,0.218886 -0.09475,0.0249 -0.189826,0.04991 -0.285013,0.07543 -0.03991,0.01073 -0.08148,0.02193 -0.123343,0.03374 -0.01058,0.003 -0.03865,0.01075 -0.06438,0.01953 -0.02187,0.0078 -0.03639,0.0129 -0.05036,0.01759 -0.01722,0.0056 -0.0017,4.24e-4 0.0084,-0.002 0.1041,-0.02535 0.212766,-0.04836 0.317375,-0.02521 0.0523,0.01158 0.102394,0.03437 0.143843,0.06831 0.04145,0.03394 0.07389,0.07894 0.09214,0.129308 0.01825,0.05036 0.02219,0.105704 0.0121,0.158315 -0.01009,0.05261 -0.03397,0.102197 -0.06674,0.144573 -0.06555,0.08475 -0.163816,0.136562 -0.260061,0.183636 -0.0093,0.0045 -0.02034,0.0088 -0.006,0.003 0.0087,-0.0034 0.02064,-0.0077 0.03332,-0.01208 0.01294,-0.0044 0.01887,-0.0059 0.01622,-0.0053 -0.0017,4.48e-4 -0.0044,0.0013 -0.0148,0.0031 -0.0098,0.0017 -0.02952,0.0047 -0.05506,0.0045 -0.07692,-4.55e-4 -0.155612,-0.0026 -0.227349,-0.03039 -0.07174,-0.02776 -0.134111,-0.08238 -0.164143,-0.153196 -0.03003,-0.07081 -0.02593,-0.153645 0.0041,-0.224466 0.03001,-0.07082 0.08333,-0.128767 0.136653,-0.184202 0.02151,-0.02236 0.03514,-0.03147 0.03668,-0.03262 0.01098,-0.008 0.01555,-0.01022 -0.0015,-5.14e-4 -0.0028,0.0016 -0.01629,0.0084 -0.03943,0.02183 -0.0032,0.0018 -0.0065,0.0037 -0.0164,0.0099 -0.0093,0.0059 -0.02732,0.01776 -0.04759,0.03548 -0.0691,0.06042 -0.138619,0.124511 -0.177668,0.207579 -0.01952,0.04154 -0.03116,0.08699 -0.03193,0.132872 -7.73e-4,0.04589 0.0094,0.092 0.03009,0.132976 0.02066,0.04098 0.05166,0.0766 0.089,0.103282 0.03734,0.02668 0.08077,0.0444 0.125758,0.05349 0.08997,0.01818 0.18288,7.79e-4 0.272636,-0.01843 0.04058,-0.0087 0.05854,-0.01667 0.05751,-0.01633 0.02454,-0.0085 0.04119,-0.01463 0.05433,-0.01929 0.01658,-0.0059 0.0258,-0.0091 0.03367,-0.01147 0.0084,-0.0025 -0.0014,0.0023 -0.03212,0.0061 -0.0046,5.68e-4 -0.0091,0.001 -0.01372,0.0014 7.53e-4,-6.4e-5 -0.0078,0.001 -0.02557,0.0011 -0.0175,8.2e-5 -0.04673,-0.0011 -0.08185,-0.0096 -0.06634,-0.01603 -0.133637,-0.03361 -0.191341,-0.07006 -0.0577,-0.03645 -0.104083,-0.09237 -0.123032,-0.157934 -0.01895,-0.06557 -0.0095,-0.137696 0.02044,-0.199037 0.02993,-0.06134 0.07846,-0.111274 0.127033,-0.159221 0.02161,-0.02133 0.02955,-0.02508 0.02409,-0.02113 -0.02224,0.01611 -0.08085,0.07416 -0.05336,0.0452 0.03741,-0.03942 0.05336,-0.0452 0.05336,-0.0452 a 0.35283783,0.35283783 90 0 0 0.414036,0.571448 z"
           id="path-1-9"
           style="fill:#000000;fill-opacity:1;fill-rule:nonzero;stroke:none;stroke-width:1.62248"
           transform="rotate(13.024614,50.765976,89.952352)" /><path
           d="m 16.551019,42.746628 c -0.0093,0.0067 -0.02181,0.01415 -0.03734,0.01984 -0.01087,0.004 -0.01778,0.0047 -0.01341,0.0041 0.0078,-0.0011 0.03869,-0.0017 0.103636,-0.0096 0.03523,-0.0043 0.08626,-0.01255 0.142383,-0.0313 0.01548,-0.0051 0.03181,-0.0113 0.04808,-0.01825 0.01793,-0.0077 0.03679,-0.01671 0.05621,-0.0274 0.0064,-0.0033 0.02285,-0.01084 0.04765,-0.01971 0.02711,-0.0097 0.05906,-0.01914 0.09908,-0.02908 0.04685,-0.0116 0.09723,-0.02197 0.156582,-0.03303 0.08249,-0.01537 0.161197,-0.02823 0.243732,-0.04361 0.04982,-0.0093 0.10667,-0.02058 0.165301,-0.03481 0.04157,-0.01013 0.08932,-0.02298 0.139333,-0.04017 0.02067,-0.0072 0.03732,-0.01328 0.05159,-0.01833 0.05648,-0.02009 0.109236,-0.03842 0.160932,-0.05446 0.02856,-0.0088 0.05414,-0.01616 0.07798,-0.02196 0.0082,-0.002 0.01734,-0.004 0.02859,-0.0062 0.09698,-0.01998 0.187243,-0.04551 0.273301,-0.07396 0.10372,-0.03435 0.20353,-0.07365 0.299593,-0.11505 0.113222,-0.04885 0.222991,-0.10141 0.329675,-0.155218 0.140021,-0.07067 0.276695,-0.144532 0.410123,-0.217996 0.168883,-0.093 0.333836,-0.18623 0.49714,-0.27497 0.108613,-0.05898 0.215042,-0.115249 0.321625,-0.167768 0.08192,-0.04033 0.161929,-0.07746 0.241492,-0.110615 0.05528,-0.02301 0.108865,-0.04346 0.161477,-0.06101 0.04619,-0.01578 0.08362,-0.03411 0.10044,-0.04223 0.04885,-0.02395 0.09243,-0.04797 0.129618,-0.06889 0.06306,-0.0356 0.123473,-0.07165 0.180689,-0.106554 0.09755,-0.05958 0.192354,-0.119983 0.283935,-0.17979 0.127113,-0.08307 0.250692,-0.166832 0.370859,-0.251073 0.116909,-0.082 0.230283,-0.164232 0.34072,-0.247913 0.08762,-0.06644 0.172389,-0.132993 0.254875,-0.201317 0.06499,-0.05389 0.127884,-0.108249 0.188915,-0.164943 0.04972,-0.04629 0.09867,-0.09439 0.145815,-0.146474 0.03772,-0.04191 0.07845,-0.09044 0.115818,-0.147665 0.02427,-0.03763 0.05396,-0.08861 0.07516,-0.152784 0.01402,-0.04322 0.02508,-0.09399 0.02517,-0.152074 a 0.3748684,0.3748684 90 0 0 -0.749736,-0.0011 c 5.5e-5,-0.03697 0.0071,-0.06492 0.01203,-0.08001 0.0076,-0.0229 0.01389,-0.03055 0.0084,-0.02209 -0.0065,0.01 -0.01908,0.02634 -0.04345,0.05342 -0.02753,0.03041 -0.0601,0.06281 -0.0998,0.09976 -0.04777,0.04437 -0.09954,0.08926 -0.156767,0.136714 -0.07227,0.05986 -0.148328,0.119646 -0.229356,0.181086 -0.101937,0.07724 -0.207773,0.154037 -0.31828,0.231549 -0.11353,0.07959 -0.230369,0.158782 -0.350452,0.237258 -0.08673,0.05664 -0.175001,0.112849 -0.264503,0.167516 -0.05297,0.03231 -0.105581,0.06365 -0.158133,0.09332 -0.03316,0.01865 -0.06211,0.03442 -0.08964,0.04792 -0.01739,0.0084 -0.01705,0.0077 -0.01227,0.0061 -0.07061,0.02354 -0.141477,0.05076 -0.209812,0.0792 -0.09812,0.04089 -0.192908,0.08505 -0.284512,0.130144 -0.119186,0.05873 -0.235249,0.120184 -0.348248,0.181548 -0.170742,0.09278 -0.3369,0.186718 -0.500884,0.277018 -0.130472,0.07184 -0.258099,0.140724 -0.386221,0.205391 -0.0975,0.04918 -0.193246,0.09489 -0.288836,0.13613 -0.08123,0.03501 -0.160194,0.06588 -0.238214,0.09171 -0.06479,0.02142 -0.126513,0.03855 -0.186167,0.05085 -0.01582,0.0031 -0.0363,0.0075 -0.05777,0.01272 -0.04394,0.01068 -0.08556,0.02285 -0.122285,0.03421 -0.06729,0.02087 -0.131908,0.04346 -0.189778,0.06404 -0.01796,0.0064 -0.03347,0.01199 -0.04634,0.01649 -0.0189,0.0065 -0.04272,0.01318 -0.07109,0.02009 -0.03934,0.0096 -0.0812,0.01797 -0.125891,0.02634 -0.07951,0.01484 -0.163584,0.02865 -0.243309,0.04353 -0.06637,0.01238 -0.132622,0.02578 -0.199649,0.04238 -0.05737,0.01425 -0.114186,0.03052 -0.170921,0.05076 -0.05203,0.01862 -0.102571,0.04004 -0.151862,0.0662 -0.0014,7.2e-4 0.0022,-0.001 0.0057,-0.0025 0.0032,-0.0014 0.0064,-0.0026 0.0097,-0.0037 0.0084,-0.0028 0.01153,-0.0025 0.0032,-0.0015 -0.01325,0.0016 -0.05563,0.0029 -0.114746,0.01109 -0.04543,0.0063 -0.09362,0.01674 -0.142904,0.0349 -0.06087,0.0223 -0.108032,0.05102 -0.140609,0.07435 a 0.3748684,0.3748684 90 0 0 0.43653,0.609546 z"
           id="path-1-6"
           style="fill:#000000;fill-opacity:1;fill-rule:nonzero;stroke:none;stroke-width:1.62248"
           transform="rotate(43.73564,30.46444,71.304433)" /></g></g></g></svg>
