<?xml version="1.0" encoding="UTF-8" standalone="no"?>
<!-- Created with Inkscape (http://www.inkscape.org/) -->

<svg
   width="117.89341mm"
   height="66.168655mm"
   viewBox="0 0 117.89341 66.168655"
   version="1.1"
   id="svg1"
   xml:space="preserve"
   xmlnsXlink="http://www.w3.org/1999/xlink"
   xmlns="http://www.w3.org/2000/svg"
   xmlnsSvg="http://www.w3.org/2000/svg"><defs
     id="defs1"><pattern
       xlinkHref="#Lizard scales"
       preserveAspectRatio="xMidYMid"
       id="pattern58"
       patternTransform="translate(517.61634,430.02323)" /><pattern
       patternUnits="userSpaceOnUse"
       preserveAspectRatio="xMidYMid"
       width="74.53426"
       height="42.717944"
       patternTransform="translate(517.61634,430.02323)"
       style="fill:#000000"
       id="Lizard scales"><path
         id="path48318"
         style="color:#000000;mix-blend-mode:normal;fill-opacity:1;stroke-width:1.99404;stroke-linecap:round;paint-order:markers fill stroke"
         d="M 17.457713,0 C 16.094967,2.2617524 14.577487,4.6363465 12.960643,6.8790841 8.0534551,13.685783 1.4757921,18.073175 0,19.034608 v 4.718472 l 1.0279937,-0.633789 c 0,0 5.3450457,-3.265259 10.5832063,-8.618158 1.723729,3.350842 5.302035,9.970851 9.515792,15.815648 0.58012,0.804752 1.188737,1.582719 1.811868,2.331961 -0.715767,1.43904 -2.733317,5.519705 -5.481147,10.069202 h 4.562344 c 1.646211,-2.83172 2.902715,-5.330075 3.738973,-6.962468 3.083603,3.134895 6.005253,5.51935 8.026885,6.962468 h 6.962457 c 2.021593,-1.443118 4.944756,-3.827573 8.028408,-6.962468 0.836258,1.632393 2.092724,4.130748 3.738973,6.962468 h 4.560756 C 54.328717,38.168447 52.311205,34.087782 51.5954,32.648742 c 0.623169,-0.749242 1.231711,-1.527209 1.811868,-2.331961 4.21372,-5.844797 7.792063,-12.464806 9.51583,-15.815648 5.238123,5.352899 10.58468,8.618158 10.58468,8.618158 L 74.53426,23.75308 V 19.034608 C 73.058468,18.073175 66.480805,13.685783 61.573655,6.8790841 59.956811,4.6363465 58.439293,2.2617524 57.076509,0 h -4.560756 c 1.675729,2.8888479 3.68965,6.1304882 5.879887,9.1685896 0.550299,0.763268 1.125392,1.5017994 1.714847,2.2151884 -1.17857,2.358221 -5.15966,10.092204 -9.882709,16.643524 C 45.320882,34.833562 38.743521,39.219428 37.267124,40.181303 35.790728,39.219428 29.213367,34.833562 24.30652,28.027302 19.583471,21.475982 15.602381,13.741999 14.423773,11.383778 15.013228,10.670389 15.588359,9.9318576 16.13862,9.1685896 18.328894,6.1304882 20.344328,2.8888479 22.020057,0 Z m 16.328202,0 c 1.479231,1.0630413 2.453216,1.6678375 2.453216,1.6678375 l 1.027993,0.6353121 1.027994,-0.6353121 c 0,0 0.973984,-0.6047962 2.453254,-1.6678375 h -3.481248 z" /></pattern><linearGradient
       id="swatch50"><stop
         style="stop-color:#000000;stop-opacity:1;"
         offset="0"
         id="stop50" /></linearGradient></defs><g
     id="layer1"
     transform="translate(-25.429249,-43.96675)"><g
       style="clip-rule:evenodd;fill-rule:evenodd;stroke-linejoin:round;stroke-miterlimit:2"
       id="g2"
       transform="matrix(2.3720277,0,0,2.1653268,12.807163,37.406099)"><g
         transform="translate(-1152.21,-33.9858)"
         id="g1"><g
           id="g25"
           transform="translate(0.64045689,1.0523919)"><g
             id="g24"
             transform="translate(-0.64045693,0.11693243)"><path
               d="m 1158.0356,66.225643 h 23.94 c 0.27,0 0.5,-0.224 0.5,-0.5 v -16.497 c 0,-0.975 -0.16,-1.943 -0.47,-2.867 0,-10e-4 0,-10e-4 0,-0.002 -1.03,-2.979 -2.25,-5.804 -3.67,-8.471 0,0 0,-0.001 0,-0.002 -0.18,-0.325 -0.49,-0.547 -0.85,-0.612 -0.06,-0.031 -0.13,-0.049 -0.21,-0.049 h -14.22 c -0.06,0 -0.12,0.01 -0.17,0.031 -1.84,0.68 -3.08,2.07 -3.89,3.503 -1.19,2.098 -1.46,4.274 -1.46,4.274 -0.02,0.142 0.03,0.285 0.12,0.392 0.1,0.108 0.24,0.169 0.38,0.169 h 1.28 c -0.89,1.963 -1.78,3.787 -1.78,6.062 0,5.232 0,14.069 0,14.069 0,0.276 0.22,0.5 0.5,0.5 z m 19.74,-1 h 3.7 v -15.998 c 0,-0.865 -0.14,-1.724 -0.42,-2.544 -1.01,-2.927 -2.2,-5.703 -3.6,-8.322 -0.04,-0.065 -0.11,-0.106 -0.18,-0.106 -0.07,0 -0.14,0.041 -0.18,0.105 -1.13,2.171 -2.31,4.885 -3.54,8.26 0,0 0,0 0,0 -0.32,0.873 -0.48,1.794 -0.48,2.723 0,0 0,10e-4 0,10e-4 0,3.735 0,13.553 0,15.881 h 3.7 v -22.783 c 0,-0.276 0.22,-0.5 0.5,-0.5 0.27,0 0.5,0.224 0.5,0.5 z m -2.03,-26.399 c -1.3,0.769 -3.09,2.504 -4.15,6.4 -0.06,0.217 -0.26,0.368 -0.48,0.368 h -10.71 c -0.58,1.317 -1.22,2.547 -1.57,3.891 h 11.6 c 0.27,0 0.5,0.224 0.5,0.5 0,0.276 -0.23,0.5 -0.5,0.5 h -11.81 c -0.06,0.378 -0.09,0.767 -0.09,1.171 0,0 0,13.569 0,13.569 h 13.54 c 0,-2.327 0,-12.147 0,-15.882 0,-1.046 0.18,-2.084 0.54,-3.066 1.08,-2.959 2.12,-5.417 3.13,-7.451 z m -15.66,5.768 c 3.22,0 10.65,0 10.65,0 1.05,-3.578 2.69,-5.421 4.06,-6.369 v 0 c 0,0 -11.65,0 -11.65,0 -1.55,0.602 -2.59,1.803 -3.28,3.026 -0.73,1.293 -1.08,2.618 -1.24,3.343 z"
               id="path1" /><path
               style="fill:#ffffff;fill-opacity:1;stroke-width:0.0394995"
               d="m 1173.1106,56.816009 c 0.014,-9.168523 0,-8.449603 0.2288,-9.405584 0.1386,-0.57025 0.9782,-2.810886 1.7232,-4.598971 0.6135,-1.472151 1.6757,-3.76616 2.0243,-4.371902 0.099,-0.172805 0.2252,-0.204918 0.3236,-0.08268 0.032,0.03979 0.2021,0.351405 0.378,0.692476 1.0935,2.121077 2.0723,4.382161 2.9491,6.8126 0.3542,0.981999 0.4725,1.371005 0.5963,1.960641 l 0.085,0.404652 0.011,8.485416 0.011,8.485416 h -1.8311 -1.831 V 53.73128 42.264489 l -0.079,-0.109755 c -0.2255,-0.313995 -0.6828,-0.301411 -0.8637,0.02377 -0.076,0.136388 -0.076,0.175438 -0.076,11.578208 l -10e-5,11.44136 h -1.8311 -1.8312 z"
               id="path25" /><path
               style="fill:#ffffff;fill-opacity:1;stroke-width:0.0394995"
               d="m 1158.5794,57.95291 c 0.01,-3.984839 0.025,-7.286795 0.043,-7.33768 l 0.032,-0.09252 5.968,-0.01084 c 5.6235,-0.01022 5.975,-0.01505 6.0899,-0.08389 0.3103,-0.185726 0.3174,-0.661158 0.013,-0.868495 l -0.1351,-0.092 -5.859,-0.01097 c -3.2225,-0.006 -5.859,-0.01819 -5.859,-0.02701 0,-0.0088 0.06,-0.203197 0.1321,-0.431952 0.1897,-0.596739 0.4528,-1.242579 0.9691,-2.378651 l 0.4528,-0.996213 5.4664,-0.02067 5.4663,-0.02067 0.1117,-0.117187 c 0.081,-0.08495 0.1449,-0.2328 0.2325,-0.537445 0.4295,-1.493277 1.1699,-3.070938 1.9142,-4.079011 0.2864,-0.387915 0.8211,-0.978333 1.1431,-1.262399 0.2603,-0.229561 0.8744,-0.68744 0.8937,-0.666307 0.01,0.0069 -0.1421,0.336722 -0.3299,0.732918 -0.8421,1.776954 -1.8228,4.143612 -2.5941,6.260165 -0.4237,1.162635 -0.5833,1.867029 -0.649,2.865163 -0.023,0.343187 -0.037,3.688697 -0.038,8.493514 l -3e-4,7.9273 h -6.7372 -6.7372 z m 8.0908,4.248059 c 0.4322,-0.0906 0.6495,-0.179747 0.7183,-0.29474 0.064,-0.107759 0.057,-0.556453 -0.024,-1.483143 -0.048,-0.550242 -0.049,-2.435343 0,-3.286678 0.057,-1.018701 0.1489,-1.875037 0.2491,-2.312906 0.1018,-0.444618 0.1179,-0.409038 -0.2497,-0.549384 -0.1998,-0.0763 -0.3257,-0.09365 -0.6793,-0.09365 -0.7346,0 -0.8579,0.08272 -1.1706,0.785495 -0.6087,1.36767 -0.9117,3.153124 -0.8261,4.868004 0.068,1.368107 0.2324,1.985794 0.5927,2.229686 0.2875,0.194655 0.8513,0.250332 1.3905,0.137319 z m 2.6475,-0.307661 c 0.2069,-0.158948 0.2333,-0.167954 0.4925,-0.167954 0.3614,0 0.5342,-0.09806 0.5342,-0.303109 0,-0.04772 -0.05,-0.0535 -0.6793,-0.07915 -0.3214,-0.01309 -0.3774,-0.03858 -0.3774,-0.171885 0,-0.22929 0.2639,-0.318611 0.625,-0.211534 0.213,0.06314 0.2542,0.06486 0.3248,0.0135 0.082,-0.05981 0.1658,-0.318962 0.2074,-0.642552 0.021,-0.160328 0.01,-0.190058 -0.1214,-0.351407 -0.086,-0.105402 -0.2026,-0.196243 -0.29,-0.22597 -0.08,-0.02734 -0.2037,-0.0887 -0.2741,-0.136347 l -0.1279,-0.08663 -0.1515,0.08467 c -0.083,0.04657 -0.1785,0.08467 -0.2115,0.08467 -0.2626,0 -0.5207,-0.461396 -0.3229,-0.577332 0.1107,-0.0649 0.151,-0.05258 0.198,0.06056 0.049,0.117268 0.151,0.131584 0.2951,0.04134 0.1379,-0.08635 0.2636,-0.07469 0.434,0.04026 0.083,0.05602 0.1985,0.102433 0.2567,0.103143 0.086,0.0011 0.1162,-0.02622 0.1626,-0.147875 0.031,-0.08204 0.052,-0.154099 0.045,-0.160129 -0.036,-0.03387 -0.9112,-0.365061 -1.3094,-0.495476 -0.4784,-0.156686 -1.2171,-0.351762 -1.3346,-0.352428 -0.056,-3.66e-4 -0.066,0.04021 -0.066,0.27602 0,0.226879 0.015,0.293533 0.082,0.372076 0.1004,0.117153 0.1758,0.119716 0.3892,0.01323 0.1887,-0.09416 0.2743,-0.07551 0.3069,0.06688 0.047,0.206423 -0.2591,0.407329 -0.5772,0.378435 l -0.201,-0.01826 9e-4,0.375478 c 4e-4,0.206513 0.032,0.738252 0.07,1.181644 0.038,0.443392 0.061,0.875931 0.052,0.961198 -0.02,0.179379 0.01,0.189091 0.2549,0.09302 0.2353,-0.09096 0.4074,-0.07379 0.6416,0.06404 0.2626,0.154577 0.3826,0.139905 0.6715,-0.08212 z m -4.5824,0.07853 c 0.011,-0.01223 -0.017,-0.127964 -0.063,-0.257189 -0.068,-0.191741 -0.096,-0.230599 -0.1533,-0.211277 -0.1425,0.04809 -0.4838,-0.02959 -0.5765,-0.131217 -0.1079,-0.118168 -0.1109,-0.160659 -0.018,-0.262125 0.065,-0.07163 0.087,-0.07344 0.2656,-0.02259 0.2032,0.05774 0.3048,0.04391 0.3048,-0.04146 0,-0.02772 -0.027,-0.253623 -0.06,-0.502015 -0.064,-0.47776 -0.088,-2.061409 -0.035,-2.246244 l 0.029,-0.09923 -0.4101,0.02865 c -0.2256,0.01576 -0.6903,0.07556 -1.0328,0.132884 -0.3425,0.05733 -0.7926,0.117081 -1.0001,0.132784 l -0.3774,0.02855 -0.011,0.168536 c -0.01,0.137233 0.014,0.210182 0.1265,0.392749 0.2825,0.45962 0.2937,0.529535 0.1468,0.911891 -0.1332,0.346866 -0.1161,0.441613 0.097,0.531778 0.2666,0.113072 0.3774,0.256393 0.3776,0.488491 3e-4,0.269806 0.063,0.489826 0.1617,0.56566 0.068,0.05246 0.1501,0.05925 0.4467,0.037 0.2872,-0.02154 0.3861,-0.01421 0.4718,0.03496 0.06,0.03422 0.2272,0.131424 0.3724,0.216005 0.2553,0.148667 0.2749,0.153314 0.5913,0.139712 0.18,-0.0077 0.3364,-0.02407 0.3475,-0.0363 z m 6.1495,-3.297504 c 0.1549,-0.187486 0.2341,-0.663566 0.1777,-1.067218 -0.065,-0.464998 -0.2834,-0.900003 -0.629,-1.253659 -0.2734,-0.279703 -1.0293,-0.870729 -1.1136,-0.870729 -0.022,0 0,0.08011 0.056,0.178017 0.3054,0.570927 0.7736,1.677618 1.0616,2.509204 0.098,0.284226 0.1867,0.530727 0.1962,0.54778 0.032,0.05828 0.1897,0.03112 0.2512,-0.04339 z m -0.9381,-0.927751 c -0.3291,-0.901682 -0.4271,-1.128043 -0.8596,-1.983683 l -0.3076,-0.608678 -0.3662,-0.166482 c -0.2014,-0.09157 -0.3914,-0.166481 -0.4222,-0.166481 -0.068,0 -0.1533,0.381041 -0.2146,0.953139 l -0.042,0.390471 0.2955,0.516774 c 0.1626,0.284224 0.3804,0.717454 0.4841,0.96273 l 0.1886,0.445958 0.2075,0.06321 c 0.1142,0.03477 0.4539,0.150349 0.7548,0.256854 0.301,0.106505 0.5528,0.179868 0.5597,0.163027 0.01,-0.01684 -0.1183,-0.388915 -0.2781,-0.826837 z m -7.7401,0.383333 c 0.1841,-0.02121 0.3442,-0.04898 0.3558,-0.06171 0.079,-0.08714 -1.3186,-1.259481 -1.4408,-1.208113 -0.081,0.03405 -0.1862,0.497184 -0.1658,0.729779 0.033,0.377236 0.268,0.5411 0.8218,0.573147 0.052,0.003 0.2449,-0.01189 0.429,-0.0331 z m 1.1561,-0.170574 c 0.1349,-0.02454 0.4321,-0.05695 0.6604,-0.07203 l 0.4151,-0.02742 0.011,-0.124025 c 0.021,-0.242354 -0.7959,-1.154606 -1.7036,-1.901484 l -0.4404,-0.36235 -0.1411,0.107178 c -0.3344,0.253878 -0.8771,0.830604 -0.8771,0.932075 0,0.01723 0.174,0.160273 0.3868,0.317885 0.5279,0.391169 0.8915,0.7132 1.0891,0.964489 0.1833,0.233153 0.2013,0.23815 0.5998,0.165689 z m 4.7017,-0.52321 c -0.1347,-0.289911 -0.2694,-0.563826 -0.2995,-0.608703 -0.051,-0.07563 -0.056,-0.06506 -0.076,0.144697 -0.012,0.124459 -0.028,0.36974 -0.036,0.545068 l -0.014,0.318779 0.2113,0.04558 c 0.1161,0.02507 0.2282,0.05224 0.2489,0.06037 0.021,0.0081 0.077,0.01626 0.1241,0.01805 0.081,0.0031 0.072,-0.02806 -0.1586,-0.523844 z m -3.4197,-0.733818 c 0.047,-0.22738 0.1352,-0.587386 0.1968,-0.800011 l 0.1122,-0.386592 -0.088,-0.103197 c -0.1485,-0.17426 -0.9188,-0.797965 -0.9856,-0.797965 -0.174,0 -1.2723,0.573436 -1.2723,0.664274 0,0.01713 0.2165,0.21399 0.4812,0.437471 0.2646,0.223481 0.6934,0.639996 0.9529,0.925587 0.2594,0.285592 0.4821,0.509041 0.4949,0.496554 0.013,-0.01249 0.061,-0.208741 0.1078,-0.436121 z m 0.6049,-1.935366 c 0.093,-0.208878 0.1757,-0.394312 0.1828,-0.412076 0.015,-0.03756 -0.4841,0.003 -0.8531,0.06929 -0.1398,0.02513 -0.2543,0.05706 -0.2543,0.07095 0,0.02787 0.7057,0.653379 0.7359,0.652295 0.01,-3.66e-4 0.095,-0.171576 0.1887,-0.380455 z"
               id="path26" /><path
               style="fill:#ffffff;fill-opacity:1;stroke-width:0.0394995"
               d="m 1158.7245,44.268754 c 0.7166,-2.883055 2.156,-4.952026 4.0819,-5.867092 l 0.3342,-0.158747 5.7727,0.01047 5.7727,0.01047 -0.2933,0.232603 c -1.5074,1.195653 -2.6914,3.074388 -3.5208,5.586265 l -0.1603,0.485766 h -6.0308 -6.0307 z"
               id="path27" /><path
               style="fill:#ffffff;fill-opacity:1;stroke-width:0.0394995"
               d="m 1158.5784,57.932239 c 0.01,-3.996207 0.025,-7.29779 0.042,-7.336848 0.03,-0.06661 0.4025,-0.07174 6.0006,-0.08268 5.6234,-0.011 5.9757,-0.01589 6.0906,-0.08472 0.3145,-0.188268 0.3121,-0.672651 0,-0.882547 -0.1137,-0.07536 -0.3124,-0.07832 -5.9766,-0.08892 -3.2224,-0.006 -5.859,-0.01819 -5.859,-0.02701 0,-0.0458 0.2769,-0.876757 0.3937,-1.181607 0.074,-0.193273 0.3629,-0.863012 0.6418,-1.488308 l 0.5071,-1.136901 5.4738,-0.02067 5.4739,-0.02067 0.1096,-0.124026 c 0.078,-0.08853 0.1558,-0.277828 0.271,-0.66147 0.6728,-2.241101 1.7398,-4.083746 3.0173,-5.210546 0.2909,-0.256528 0.8753,-0.686448 0.8986,-0.660965 0.01,0.0098 -0.026,0.09781 -0.078,0.195474 -0.3803,0.713182 -1.5073,3.310586 -2.167,4.993896 -1.048,2.674264 -1.2464,3.370976 -1.3308,4.67163 -0.025,0.379814 -0.039,3.496489 -0.039,8.506087 l -4e-4,7.906631 h -6.7373 -6.7373 z m 8.0918,4.26873 c 0.4322,-0.0906 0.6495,-0.179747 0.7183,-0.29474 0.064,-0.107759 0.057,-0.556453 -0.024,-1.483143 -0.048,-0.550242 -0.049,-2.435343 0,-3.286678 0.057,-1.018701 0.1489,-1.875037 0.2491,-2.312906 0.1018,-0.444618 0.1179,-0.409038 -0.2497,-0.549384 -0.1998,-0.0763 -0.3257,-0.09365 -0.6793,-0.09365 -0.7346,0 -0.8579,0.08272 -1.1706,0.785495 -0.6087,1.36767 -0.9117,3.153124 -0.8261,4.868004 0.068,1.368107 0.2324,1.985794 0.5927,2.229686 0.2875,0.194655 0.8513,0.250332 1.3905,0.137319 z m 2.6475,-0.307661 c 0.2069,-0.158948 0.2333,-0.167954 0.4925,-0.167954 0.3614,0 0.5342,-0.09806 0.5342,-0.303109 0,-0.04772 -0.05,-0.0535 -0.6793,-0.07915 -0.3214,-0.01309 -0.3774,-0.03858 -0.3774,-0.171885 0,-0.22929 0.2639,-0.318611 0.625,-0.211534 0.213,0.06314 0.2542,0.06486 0.3248,0.0135 0.082,-0.05981 0.1658,-0.318962 0.2074,-0.642552 0.021,-0.160328 0.01,-0.190058 -0.1214,-0.351407 -0.086,-0.105402 -0.2026,-0.196243 -0.29,-0.22597 -0.08,-0.02734 -0.2037,-0.0887 -0.2741,-0.136347 l -0.1279,-0.08663 -0.1515,0.08467 c -0.083,0.04657 -0.1785,0.08467 -0.2115,0.08467 -0.2626,0 -0.5207,-0.461396 -0.3229,-0.577332 0.1107,-0.0649 0.151,-0.05258 0.198,0.06056 0.049,0.117268 0.151,0.131584 0.2951,0.04134 0.1379,-0.08635 0.2636,-0.07469 0.434,0.04026 0.083,0.05602 0.1985,0.102433 0.2567,0.103143 0.086,0.0011 0.1162,-0.02622 0.1626,-0.147875 0.031,-0.08204 0.052,-0.154099 0.045,-0.160129 -0.036,-0.03387 -0.9112,-0.365061 -1.3094,-0.495476 -0.4784,-0.156686 -1.2171,-0.351762 -1.3346,-0.352428 -0.056,-3.66e-4 -0.066,0.04021 -0.066,0.27602 0,0.226879 0.015,0.293533 0.082,0.372076 0.1004,0.117153 0.1758,0.119716 0.3892,0.01323 0.1887,-0.09416 0.2743,-0.07551 0.3069,0.06688 0.047,0.206423 -0.2591,0.407329 -0.5772,0.378435 l -0.201,-0.01826 9e-4,0.375478 c 4e-4,0.206513 0.032,0.738252 0.07,1.181644 0.038,0.443392 0.061,0.875931 0.052,0.961198 -0.02,0.179379 0.01,0.189091 0.2549,0.09302 0.2353,-0.09096 0.4074,-0.07379 0.6416,0.06404 0.2626,0.154577 0.3826,0.139905 0.6715,-0.08212 z m -4.5824,0.07853 c 0.011,-0.01223 -0.017,-0.127964 -0.063,-0.257189 -0.068,-0.191741 -0.096,-0.230599 -0.1533,-0.211277 -0.1425,0.04809 -0.4838,-0.02959 -0.5765,-0.131217 -0.1079,-0.118168 -0.1109,-0.160659 -0.018,-0.262125 0.065,-0.07163 0.087,-0.07344 0.2656,-0.02259 0.2032,0.05774 0.3048,0.04391 0.3048,-0.04146 0,-0.02772 -0.027,-0.253623 -0.06,-0.502015 -0.064,-0.47776 -0.088,-2.061409 -0.035,-2.246244 l 0.029,-0.09923 -0.4101,0.02865 c -0.2256,0.01576 -0.6903,0.07556 -1.0328,0.132884 -0.3425,0.05733 -0.7926,0.117081 -1.0001,0.132784 l -0.3774,0.02855 -0.011,0.168536 c -0.01,0.137233 0.014,0.210182 0.1265,0.392749 0.2825,0.45962 0.2937,0.529535 0.1468,0.911891 -0.1332,0.346866 -0.1161,0.441613 0.097,0.531778 0.2666,0.113072 0.3774,0.256393 0.3776,0.488491 3e-4,0.269806 0.063,0.489826 0.1617,0.56566 0.068,0.05246 0.1501,0.05925 0.4467,0.037 0.2872,-0.02154 0.3861,-0.01421 0.4718,0.03496 0.06,0.03422 0.2272,0.131424 0.3724,0.216005 0.2553,0.148667 0.2749,0.153314 0.5913,0.139712 0.18,-0.0077 0.3364,-0.02407 0.3475,-0.0363 z m 6.1495,-3.297504 c 0.1549,-0.187486 0.2341,-0.663566 0.1777,-1.067218 -0.065,-0.464998 -0.2834,-0.900003 -0.629,-1.253659 -0.2734,-0.279703 -1.0293,-0.870729 -1.1136,-0.870729 -0.022,0 0,0.08011 0.056,0.178017 0.3054,0.570927 0.7736,1.677618 1.0616,2.509204 0.098,0.284226 0.1867,0.530727 0.1962,0.54778 0.032,0.05828 0.1897,0.03112 0.2512,-0.04339 z m -0.9381,-0.927751 c -0.3291,-0.901682 -0.4271,-1.128043 -0.8596,-1.983683 l -0.3076,-0.608678 -0.3662,-0.166482 c -0.2014,-0.09157 -0.3914,-0.166481 -0.4222,-0.166481 -0.068,0 -0.1533,0.381041 -0.2146,0.953139 l -0.042,0.390471 0.2955,0.516774 c 0.1626,0.284224 0.3804,0.717454 0.4841,0.96273 l 0.1886,0.445958 0.2075,0.06321 c 0.1142,0.03477 0.4539,0.150349 0.7548,0.256854 0.301,0.106505 0.5528,0.179868 0.5597,0.163027 0.01,-0.01684 -0.1183,-0.388915 -0.2781,-0.826837 z m -7.7401,0.383333 c 0.1841,-0.02121 0.3442,-0.04898 0.3558,-0.06171 0.079,-0.08714 -1.3186,-1.259481 -1.4408,-1.208113 -0.081,0.03405 -0.1862,0.497184 -0.1658,0.729779 0.033,0.377236 0.268,0.5411 0.8218,0.573147 0.052,0.003 0.2449,-0.01189 0.429,-0.0331 z m 1.1561,-0.170574 c 0.1349,-0.02454 0.4321,-0.05695 0.6604,-0.07203 l 0.4151,-0.02742 0.011,-0.124025 c 0.021,-0.242354 -0.7959,-1.154606 -1.7036,-1.901484 l -0.4404,-0.36235 -0.1411,0.107178 c -0.3344,0.253878 -0.8771,0.830604 -0.8771,0.932075 0,0.01723 0.174,0.160273 0.3868,0.317885 0.5279,0.391169 0.8915,0.7132 1.0891,0.964489 0.1833,0.233153 0.2013,0.23815 0.5998,0.165689 z m 4.7017,-0.52321 c -0.1347,-0.289911 -0.2694,-0.563826 -0.2995,-0.608703 -0.051,-0.07563 -0.056,-0.06506 -0.076,0.144697 -0.012,0.124459 -0.028,0.36974 -0.036,0.545068 l -0.014,0.318779 0.2113,0.04558 c 0.1161,0.02507 0.2282,0.05224 0.2489,0.06037 0.021,0.0081 0.077,0.01626 0.1241,0.01805 0.081,0.0031 0.072,-0.02806 -0.1586,-0.523844 z m -3.4197,-0.733818 c 0.047,-0.22738 0.1352,-0.587386 0.1968,-0.800011 l 0.1122,-0.386592 -0.088,-0.103197 c -0.1485,-0.17426 -0.9188,-0.797965 -0.9856,-0.797965 -0.174,0 -1.2723,0.573436 -1.2723,0.664274 0,0.01713 0.2165,0.21399 0.4812,0.437471 0.2646,0.223481 0.6934,0.639996 0.9529,0.925587 0.2594,0.285592 0.4821,0.509041 0.4949,0.496554 0.013,-0.01249 0.061,-0.208741 0.1078,-0.436121 z m 0.6049,-1.935366 c 0.093,-0.208878 0.1757,-0.394312 0.1828,-0.412076 0.015,-0.03756 -0.4841,0.003 -0.8531,0.06929 -0.1398,0.02513 -0.2543,0.05706 -0.2543,0.07095 0,0.02787 0.7057,0.653379 0.7359,0.652295 0.01,-3.66e-4 0.095,-0.171576 0.1887,-0.380455 z"
               id="path28" /><path
               style="fill:#ffffff;fill-opacity:1;stroke-width:0.0394995"
               d="m 1173.1001,57.022718 c 8e-4,-8.871345 -0.01,-8.584732 0.2081,-9.490411 0.3011,-1.277632 2.2248,-6.011791 3.3798,-8.317595 0.4578,-0.914081 0.4729,-0.937603 0.5918,-0.922398 0.124,0.01587 0.1791,0.10446 0.6892,1.108436 0.9755,1.920107 1.9635,4.226143 2.7686,6.462088 0.3667,1.018463 0.4388,1.251455 0.5785,1.868297 l 0.103,0.454761 0.011,8.506087 0.011,8.506087 h -1.8311 -1.8311 v -11.476499 -11.4765 l -0.1254,-0.137303 c -0.2253,-0.246861 -0.617,-0.229681 -0.7958,0.03491 l -0.079,0.116719 -0.01,11.469337 -0.01,11.469336 h -1.8301 -1.8301 z"
               id="path29" /><text
               xml:space="preserve"
               style="font-size:4.02819px;fill:#000000;fill-opacity:1;stroke-width:0.335683"
               x="1479.4097"
               y="-325.13287"
               id="text29"
               transform="matrix(0.70494554,0.29998022,-0.43707131,1.2325594,0,0)"><tspan
                 id="tspan29"
                 style="font-style:normal;font-variant:normal;font-weight:normal;font-stretch:normal;font-size:4.02819px;font-family:'Snap ITC';-inkscape-font-specification:'Snap ITC, Normal';font-variant-ligatures:normal;font-variant-caps:normal;font-variant-numeric:normal;font-variant-east-asian:normal;fill:#000000;stroke-width:0.335683"
                 x="1479.4097"
                 y="-325.13287">10% off</tspan></text><path
               d="m 1204.2737,51.161651 -3.3749,4.83344 -9.7926,4.464675 c -0.3046,0.138835 -0.4448,0.515758 -0.3126,0.842114 0.1321,0.326191 0.4862,0.478007 0.7909,0.338965 l 1.6463,-0.750612 c -0.01,0.0588 -0.021,0.117458 -0.028,0.177784 -0.1494,1.383479 0.7843,2.645849 2.0814,2.81393 0.034,0.0044 0.068,0.0049 0.1021,0.0077 l -1.0385,1.487381 c -0.1982,0.283401 -0.1421,0.685899 0.1246,0.898776 0.2668,0.213023 0.6434,0.155898 0.8413,-0.127468 l 6.3588,-9.107 5.1974,-2.369549 c 0.2044,-0.09322 0.3347,-0.29347 0.3585,-0.513755 0.012,-0.108083 0,-0.22103 -0.046,-0.32843 -0.1321,-0.326119 -0.4861,-0.477935 -0.7909,-0.338893 l -3.2859,1.49813 2.1337,-3.055842 c 0.065,-0.0933 0.1029,-0.199485 0.1145,-0.307568 0.024,-0.220285 -0.06,-0.448393 -0.2392,-0.591207 -0.2667,-0.213095 -0.6433,-0.15597 -0.8412,0.127468 z m -9.8759,10.061198 c 0.074,-0.680721 0.6526,-1.16729 1.2909,-1.084581 0.6382,0.08271 1.0977,0.703849 1.0242,1.38457 -0.073,0.680794 -0.6526,1.167361 -1.2909,1.084652 -0.6382,-0.08271 -1.0977,-0.703847 -1.0242,-1.384641 z m 3.3669,-0.739224 c -0.1819,-0.505404 -0.5124,-0.937887 -0.9397,-1.232018 l 2.6406,-1.204018 z"
               id="path1-3"
               style="fill:#000000;fill-opacity:1;stroke-width:0.28853" /><path
               style="fill:url(#pattern58);fill-opacity:1;stroke-width:0.116746"
               id="path41"
               d="m 1190.837,36.948406 c 0.7565,0.109711 1.5203,0.142718 2.2765,0.255586 0.4949,0.07388 0.9865,0.17305 1.4797,0.259404 2.2166,0.381291 4.4652,0.421958 6.7017,0.549262 0,0 -1.0682,-0.860001 -1.0682,-0.860001 v 0 c -2.2847,-0.144436 -4.5747,-0.278142 -6.8368,-0.679505 -0.1812,-0.03213 -1.3061,-0.232858 -1.4934,-0.261071 -0.7897,-0.118961 -1.5943,-0.147145 -2.3693,-0.365739 z" /><path
               style="fill:#000000;fill-opacity:1;stroke-width:0.116746"
               id="path58"
               d="m 1184.6552,46.623893 c 0.5503,-0.294933 1.1728,-0.463885 1.7869,-0.472521 0.1981,-0.0028 0.3958,0.01814 0.5938,0.02721 1.2994,0.192271 2.6097,0.400139 3.8651,0.829755 0.2306,0.07892 0.4557,0.175973 0.6835,0.26396 -0.4069,-0.337407 1.4078,0.757787 1.0695,0.53972 -0.2844,-0.183357 -0.557,-0.402218 -0.8693,-0.519035 -0.1765,-0.06598 0.3031,0.237792 0.4508,0.362489 0.2282,0.192817 0.7696,0.688626 0.9748,0.875003 0.6915,0.607992 1.3707,1.232941 2.0736,1.825219 0.449,0.37828 0.9513,0.797004 1.4458,1.10669 0.6564,0.411017 1.3282,0.791694 1.9923,1.187542 0,0 -1.1696,-1.022587 -1.1696,-1.022587 v 0 c 0.1863,0.141226 0.7682,0.518813 0.559,0.423675 -0.2655,-0.120682 -0.4931,-0.324257 -0.7305,-0.501683 -0.969,-0.724146 -1.8423,-1.588382 -2.7547,-2.392144 -0.2249,-0.209422 -0.7062,-0.661216 -0.9477,-0.872892 -0.1458,-0.127742 -0.2857,-0.265548 -0.4439,-0.374083 -0.931,-0.638613 -1.8174,-1.260144 -2.8459,-1.65709 -0.2256,-0.08149 -0.4489,-0.171136 -0.6768,-0.244474 -1.2773,-0.411001 -2.6035,-0.629596 -3.9193,-0.827838 -0.2078,-0.0086 -0.4155,-0.02946 -0.6234,-0.02564 -0.6522,0.01199 -1.2892,0.209235 -1.8935,0.464512 z" /></g><g
             id="g6"
             transform="matrix(0.1115431,0,0,0.12219095,1158.5157,64.552524)"><g
               id="g11"
               transform="translate(11.483578,-100.95978)"><path
                 d="m 22.625,48.301 c 1.2812,-0.19531 2.543,-0.39062 3.8086,-0.53516 3.1094,-0.50391 6.2227,-0.73047 9.3477,-0.77734 0.06641,-0.51953 0.14453,-1.0195 0.21094,-1.5391 -1.1016,-1.3789 -2.2188,-2.7383 -3.3516,-3.9844 -4.6641,-5.2812 -10.254,-9.5273 -15.957,-13.625 -3.4023,2.3008 -6.543,4.9414 -8.9922,8.2461 -0.015625,0.03125 -0.046875,0.08203 -0.066406,0.11328 3.4336,2.2031 6.8359,4.457 9.9961,7.0312 1.8438,1.5195 3.4648,3.2539 5.0039,5.0703 z"
                 id="path1-5"
                 style="fill:#ce6969;fill-opacity:1" /><path
                 d="m 36.688,41.43 c 0.55078,-2.8672 1.2305,-5.7031 2.0234,-8.5039 0.51953,-1.5859 1.0352,-3.2891 1.6211,-5.0078 -2.8984,-2.6562 -6.0117,-5.0859 -9.2812,-7.2578 -0.03125,-0.01563 -0.06641,-0.03125 -0.08203,-0.06641 -2.25,0.69531 -4.4531,1.5391 -6.5625,2.5938 -1.668,0.92188 -3.3359,1.8789 -4.9727,2.8828 6.2383,4.5703 12.297,9.3828 17.254,15.359 z"
                 id="path2"
                 style="fill:#ce6969;fill-opacity:1" /><path
                 d="m 74.223,48.914 c 2.8359,0.74609 5.6367,1.5703 8.4062,2.4453 1.6836,0.39062 3.3047,1.0859 4.9258,1.7188 0.06641,0.03125 0.14453,0.04687 0.21094,0.08203 -2.5938,-7 -5.3281,-14.031 -8.8789,-20.43 -1.4102,-2.4609 -2.7695,-5.0078 -4.1797,-7.5 -2.3477,-1.1172 -4.7773,-2.0898 -7.2266,-2.9805 -0.74609,2.5117 -1.2461,5.1523 -1.5234,7.7109 -0.11328,1.1172 -0.22656,2.2344 -0.32422,3.3516 1.4727,2.2344 2.8672,4.5039 4.2617,6.7539 1.6562,2.8359 3.0977,5.8008 4.3281,8.8477 z"
                 id="path3"
                 style="fill:#ce6969;fill-opacity:1" /><path
                 d="m 70.336,47.977 c -1.4922,-3.3516 -3.207,-6.5938 -5.1016,-9.7031 -0.21094,2.8672 -0.37109,5.7344 -0.48438,8.6016 1.875,0.30469 3.7227,0.67969 5.5859,1.1016 z"
                 id="path4"
                 style="fill:#ce6969;fill-opacity:1" /><path
                 d="m 41.449,24.891 c 0.89062,-2.2852 1.9453,-4.4883 3.2383,-6.4297 -3.3359,0.08203 -6.6602,0.45312 -9.9141,1.1484 1.5391,1.0859 3.0312,2.2188 4.4883,3.418 0.73047,0.59766 1.457,1.2305 2.1875,1.8633 z"
                 id="path5"
                 style="fill:#ce6969;fill-opacity:1" /><path
                 d="M 64.973,19.219 C 64.89097,19.17213 64.81284,19.13697 64.71519,19.09009 64.5355,18.99243 64.3441,18.89478 64.13316,18.79712 64.0355,18.76587 63.93785,18.71509 63.82457,18.66821 63.62926,18.58618 63.43395,18.48852 63.22691,18.4104 63.12925,18.37915 63.01597,18.32837 62.91832,18.29712 62.70738,18.21509 62.49644,18.13696 62.28551,18.05493 62.18785,18.02368 62.0902,17.98852 61.97692,17.95727 61.76598,17.89086 61.55505,17.81274 61.34411,17.76196 61.23083,17.73071 61.13317,17.69555 61.03552,17.6643 c -0.22656,-0.04687 -0.4375,-0.11328 -0.66406,-0.16406 -0.09766,-0.03125 -0.21094,-0.04687 -0.30859,-0.08203 -0.22656,-0.04687 -0.4375,-0.09766 -0.66406,-0.14453 -0.11328,-0.01563 -0.21094,-0.03125 -0.32422,-0.04688 -0.21094,-0.03125 -0.4375,-0.08203 -0.66406,-0.11328 -0.09766,-0.01563 -0.21094,-0.01563 -0.32422,-0.03125 -0.22656,-0.03125 -0.4375,-0.04687 -0.66406,-0.08203 -0.11328,0 -0.21094,0 -0.32422,-0.01563 -0.22656,-0.01563 -0.4375,-0.03125 -0.66406,-0.03125 -0.11328,-0.01563 -0.22656,0 -0.33984,-0.01563 h -0.64844 c -0.11328,0 -0.22656,0.01563 -0.35547,0.01563 -0.21094,0.01563 -0.42188,0.01563 -0.63281,0.03125 -0.11328,0.01563 -0.22656,0.01563 -0.33984,0.03125 -0.22656,0.01563 -0.4375,0.03125 -0.64844,0.06641 -0.11328,0.01563 -0.22656,0.04687 -0.33984,0.06641 -0.21094,0.03125 -0.42188,0.04687 -0.63281,0.09766 -0.11328,0.01563 -0.22656,0.04687 -0.33984,0.08203 -0.21094,0.03125 -0.42188,0.08203 -0.63281,0.12891 -0.09766,0.03125 -0.21094,0.06641 -0.32422,0.09766 -0.21094,0.06641 -0.42188,0.11328 -0.63281,0.17969 -0.08203,0.03125 -0.17969,0.06641 -0.27344,0.09766 -0.21094,0.08203 -0.4375,0.16016 -0.64844,0.24219 -0.08203,0.01563 -0.14453,0.04687 -0.21094,0.08203 h -0.01563 c -0.03125,0.01563 -0.04687,0.03125 -0.08203,0.03125 -0.03125,0.01563 -0.06641,0.03125 -0.09766,0.04687 -0.09766,0.03125 -0.17969,0.08203 -0.25781,0.12891 -0.01563,0.01563 -0.03125,0.03125 -0.03125,0.04687 -0.04687,0.03125 -0.09766,0.08203 -0.14453,0.11328 -0.06641,0.08203 -0.14453,0.16016 -0.21094,0.25781 0,0.01563 0,0.01563 -0.01563,0.03125 -1.1484,1.2812 -2.0234,2.8203 -2.8203,4.3398 -0.80859,1.7344 -1.5547,3.5 -2.2344,5.2969 -0.09766,0.27734 -0.21094,0.53516 -0.30859,0.80859 -1.9609,5.3125 -3.3711,10.855 -4.2109,16.492 -0.04687,0.39062 -0.11328,0.76172 -0.16016,1.1484 -0.12891,0.85937 -0.22656,1.7188 -0.32422,2.5938 0,0.12891 -0.01563,0.25781 -0.03125,0.40625 -0.71094,7.0977 -0.55078,14.289 0.50391,21.27 0.4375,3.3711 1.0547,5.9609 2.2188,7.8555 0.16016,0.25781 0.32422,0.48437 0.50391,0.71094 0.01563,0.01563 0.01563,0.03125 0.03125,0.03125 0.16016,0.21094 0.33984,0.42188 0.53516,0.61719 0.01563,0.01563 0.03125,0.03125 0.06641,0.06641 0.17969,0.17969 0.39062,0.35547 0.59766,0.53516 0.01563,0.01563 0.03125,0.03125 0.06641,0.04687 0.21094,0.16016 0.45312,0.32422 0.69531,0.46875 1.7344,1.0547 4.1133,1.5547 7.4375,1.5547 2.543,-0.04688 5.0703,-0.46875 7.5156,-1.1836 0.39062,-0.09766 0.76172,-0.22656 1.1484,-0.33984 0.12891,-0.04687 0.27734,-0.09766 0.40625,-0.14453 0.50391,-0.16016 1.0039,-0.33984 1.5078,-0.53516 v -0.01562 c 0.09766,-0.06641 0.17969,-0.14453 0.25781,-0.22656 1.8945,-2.1562 -0.27734,-10.465 -0.17969,-13.332 -0.17969,-4.1328 -0.29297,-8.2617 -0.29297,-12.41 0,-1.7656 0.03125,-3.5156 0.06641,-5.2812 v -0.35547 c 0.01563,-0.69531 0.04687,-1.4102 0.06641,-2.1211 0.01563,-0.22656 0.01563,-0.45312 0.01563,-0.67969 0.14453,-4.1641 0.40625,-8.3438 0.79297,-12.492 v -0.08203 c 0.14453,-1.4922 0.30859,-2.9805 0.46875,-4.4727 0.19531,-1.5859 0.39062,-3.1602 0.61719,-4.7305 0.29297,-1.1484 0.51953,-2.3164 0.82422,-3.4844 h -0.01563 c 0.01563,-0.01563 0.01563,-0.04687 0.03125,-0.06641 0.04687,-0.19531 0.09766,-0.39062 0.16016,-0.58203 0.03125,-0.12891 0.06641,-0.25781 0.11328,-0.39062 0.09766,-0.29297 0.19531,-0.61719 0.32422,-0.91016 z"
                 id="path6" /><path
                 d="m 90.586,35.906 c -3.2891,-3.1914 -7.0156,-5.8789 -11,-8.1484 2.6719,4.7148 5.1523,9.5273 7.2891,14.516 1.6836,3.9375 3.207,7.9531 4.6992,11.973 0.01563,0 0.01563,0.01563 0.03125,0.01563 0.27734,0.03125 0.55078,0.06641 0.82812,0.08203 1.8477,-0.42188 2.2344,-2.8828 2.6875,-4.4531 0.80859,-5.0273 -0.98828,-10.355 -4.5352,-13.984 z"
                 id="path7"
                 style="fill:#ce6969;fill-opacity:1" /><path
                 d="m 84.07,72.082 c 1.1328,0.27734 2.3633,0.98828 3.5312,0.55078 0.4375,-0.14453 0.59766,-0.59766 0.98828,-0.79297 -0.01563,-0.32422 0,-0.64844 0.04687,-0.94141 0.30859,-1.6523 1.5234,-3.2227 1.1016,-4.957 -0.66406,-1.1484 -1.9766,-1.7969 -2.4961,-3.0469 -0.09766,0.01563 -0.17969,0.01563 -0.25781,0.01563 -0.56641,0 -1.1484,-0.11328 -1.6523,-0.32422 -1.0859,-0.30859 -1.9609,-1.0195 -2.9336,-1.5703 -1.1484,0.51953 -2.2852,1.5078 -3.6289,1.2305 -2.4453,0.08203 -5.0078,-4.6836 -1.7969,-5.2656 0.80859,0 1.3438,0.71094 1.4727,1.4414 0.55078,0.71094 1.3789,0.21094 2.2344,-0.29297 0.69531,-0.40625 1.4258,-0.80859 2.0742,-0.59766 1.3594,0.27344 2.2695,1.4922 3.6445,1.7656 0.32422,0.08203 0.67969,0.14453 1.0195,0.06641 h 0.24219 c 0.37109,-0.74609 0.79297,-1.4922 0.97266,-2.2852 -0.51953,-0.17969 -1.0352,-0.39062 -1.5859,-0.66406 -3.9023,-1.4102 -7.8906,-2.7695 -11.906,-3.9219 -0.33984,-0.09766 -0.66406,-0.19531 -1.0039,-0.27734 -0.29297,-0.08203 -0.56641,-0.16016 -0.84375,-0.24219 -0.30859,-0.08203 -0.61719,-0.16406 -0.92188,-0.24219 -2.5586,-0.66406 -5.1367,-1.2305 -7.7422,-1.6836 -0.03125,1.4414 -0.06641,2.8828 -0.08203,4.3242 0.55078,0.33984 0.73047,1.1484 1.4258,1.4102 0.82422,0.46875 1.7188,0 2.5742,-0.45312 1.0703,-0.58203 2.0898,-1.168 2.8984,0.11328 0.74609,1.3945 -0.29297,2.625 -1.6055,3.0938 -0.95703,0.46875 -1.9922,0.90625 -3.0625,0.90625 -0.30859,0 -0.61719,-0.03125 -0.92188,-0.11328 -0.4375,-0.09766 -0.89062,-0.27344 -1.3125,-0.50391 0,0.92188 0,1.8477 0.01563,2.7695 0.09766,3.6289 0.35547,7.2422 0.77734,10.84 0.25781,2.7695 0.80859,5.6367 0.21094,8.375 1.168,-0.22656 2.3164,-0.61719 3.1758,-0.92188 2.1875,-0.73047 3.5156,-0.01563 4.7305,0.69531 1.75,1.0195 3.2734,2.043 6.7383,-1.0703 1.1016,-1.1484 2.4805,-1.0195 3.8711,-0.89062 0.84375,0.08203 1.6992,0.16016 2.5117,-0.06641 1.6367,-0.55078 2.1562,-1.5703 2.25,-2.7695 -0.63281,0.29297 -1.3281,0.46875 -1.9609,0.46875 -0.17969,0 -0.33984,-0.01563 -0.50391,-0.03125 -1.4727,-0.04687 -2.8203,-1.0703 -4.293,-0.76172 -0.4375,0.14453 -0.84375,0.40625 -1.3125,0.45312 -0.89062,0.12891 -1.5703,-0.61719 -1.6836,-1.457 -0.23047,-2.3906 3.2695,-2.8477 5,-2.375 z m -12.262,0.33984 c -0.30859,0 -0.59766,-0.03125 -0.85938,-0.11328 -1.7656,-0.06641 -3.4492,-1.5391 -3.5312,-3.3516 -0.03125,-1.9922 2.5273,-2.4453 2.9492,-0.39062 0.79297,0.48438 2.1055,0.48438 2.8828,-0.08203 0.53516,-0.42188 0.85938,-1.1836 1.6055,-1.3125 0.4375,-0.06641 0.875,0.09766 1.1992,0.42188 1.8281,2.3008 -1.75,4.8281 -4.2461,4.8281 z"
                 id="path8"
                 style="fill:#e1dbd8;fill-opacity:1" /><path
                 d="m 89.742,65.91 v 0.03125 c 0.03125,0.03125 0.04687,0.08203 0.06641,0.11328 C 89.78888,66.00375 89.77325,65.95687 89.742,65.91 Z"
                 id="path9" /><path
                 d="m 35.422,77.184 h -0.40625 c -1.7344,-0.14453 -4.9102,-0.4375 -4.3398,-2.8984 0.21094,-0.77734 1.0195,-1.5078 1.8633,-1.168 1.1484,0.37109 2.625,0.89062 3.8086,0.46875 -0.04687,-0.30859 -0.09766,-0.59766 -0.12891,-0.90625 -1.3281,-7.4688 -1.5234,-15.066 -0.79297,-22.566 -1.9609,0.04687 -3.9023,0.14453 -5.8984,0.37109 -1.6367,0.12891 -3.2734,0.35547 -4.9102,0.61719 -1.1016,0.16016 -2.1875,0.33984 -3.2891,0.51953 -3.5156,0.56641 -7.0312,1.0547 -10.562,0.89062 -1.9453,4.8438 4.957,5.8008 2.6094,11.273 -0.40625,1.2305 -1.1836,2.3477 -1.2969,3.6602 0.01563,0.46875 0.21094,0.89063 0.71094,1.0547 7.3398,1.9922 2.8359,5.8633 5.7031,9.0391 1.1992,0.59766 2.5117,0.37109 3.8242,0.14453 1.1172,-0.17969 2.2344,-0.37109 3.3203,-0.06641 2.0234,0.40625 3.5625,1.8789 5.3789,2.7852 2.3828,1.0195 5.1367,0.82422 7.7109,0.21094 -0.69531,-1.1016 -1.2305,-2.3164 -1.6367,-3.6445 -0.53516,0.15234 -1.1016,0.21484 -1.668,0.21484 z m -8.1797,-6.6562 c -1.0352,0.98828 -2.5742,1.668 -4.0508,1.668 -0.48438,0 -0.97266,-0.06641 -1.4414,-0.22656 -1.1836,-0.4375 -2.2188,-1.6523 -2.0898,-2.9648 0.17969,-1.6992 2.3164,-2.0898 2.8672,-0.39062 0.89062,0.35547 2.0586,-0.17969 2.7695,-0.73047 1.6836,-1.5039 3.3359,1.3477 1.9453,2.6445 z M 29.09,60.563 c -1.2305,0.875 -2.7227,0.67969 -4.0508,0.16016 -1.1992,0.42188 -2.1211,1.3789 -3.418,1.3789 -0.08203,0 -0.16016,0 -0.25781,-0.01562 -1.8789,0.01562 -2.9336,-1.832 -3.207,-3.6602 -0.33984,-2.3164 0.61059,-3.855266 2.5742,-3.2891 0.55078,0.58203 0.64844,1.5078 0.30859,2.2031 -0.06641,0.37109 0,0.76172 0.14453,1.1016 0.32422,0.45312 1.0703,-0.01563 1.832,-0.48438 0.56641,-0.33984 1.1484,-0.69531 1.5703,-0.66406 0.92187,-0.22656 1.878631,0.400995 2.753631,0.467405 1.3789,-0.33984 2.121369,-2.912705 3.644769,-1.147105 1.1641,1.6172 -0.61719,3.125 -1.8945,3.9492 z"
                 id="path10"
                 style="fill:#e1dbd8;fill-opacity:1" /><path
                 d="m 10.961,49.336 c 0.22656,0.01562 0.45312,0.03125 0.67969,0.04687 2.4609,0.08203 4.9258,-0.17969 7.3867,-0.53516 -0.95703,-1.0547 -1.9609,-2.0898 -3.0312,-3.0469 -3.0625,-2.6094 -6.4141,-4.8438 -9.8164,-6.9805 -2.0234,4.2773 -2.8672,9.4453 3.3047,10.383 0.19531,0.03125 0.37109,0.04687 0.56641,0.06641 0.19531,0.01563 0.40625,0.03125 0.59766,0.04687 0.10156,0.01953 0.21484,0.01953 0.3125,0.01953 z"
                 id="path11"
                 style="fill:#ce6969;fill-opacity:1" /></g></g></g></g></g></g></svg>
